<?xml version="1.0" encoding="UTF-8"?>
<svg version="1.1" xmlns="http://www.w3.org/2000/svg" width="128" height="128">
<path d="M0 0 C42.24 0 84.48 0 128 0 C128 42.24 128 84.48 128 128 C85.76 128 43.52 128 0 128 C0 85.76 0 43.52 0 0 Z " fill="#050506" transform="translate(0,0)"/>
<path d="M0 0 C24.75 0 49.5 0 75 0 C75 42.24 75 84.48 75 128 C55.53 128 36.06 128 16 128 C16.33 126.02 16.66 124.04 17 122 C18.485 121.01 18.485 121.01 20 120 C20 120.66 20 121.32 20 122 C20.66 122 21.32 122 22 122 C22 121.01 22 120.02 22 119 C21.34 118.67 20.68 118.34 20 118 C20.20858643 117.47865479 20.41717285 116.95730957 20.63208008 116.42016602 C22.93164406 110.20746415 23.52698312 104.52786433 23.6875 97.9375 C23.72166016 96.97650391 23.75582031 96.01550781 23.79101562 95.02539062 C23.87256667 92.68371073 23.94200966 90.34236137 24 88 C23.34 88 22.68 88 22 88 C22.495 88.99 22.495 88.99 23 90 C23.039992 91.99960012 23.04346799 94.00047242 23 96 C21.68 96 20.36 96 19 96 C19 91.71 19 87.42 19 83 C21.29032311 82.16280617 23.58210957 81.3301071 25.875 80.5 C26.85146484 80.14228516 26.85146484 80.14228516 27.84765625 79.77734375 C32.7734375 78 32.7734375 78 35 78 C35 69.75 35 61.5 35 53 C34.01 54.65 33.02 56.3 32 58 C31.06934867 55.39417629 30.85082593 54.35801776 31.9375 51.75 C32.4634375 50.88375 32.4634375 50.88375 33 50 C33.99 50.495 33.99 50.495 35 51 C35.185625 49.8553125 35.185625 49.8553125 35.375 48.6875 C36 46 36 46 38 43 C38.52540784 37.53575842 37.58925629 33.82137379 35 29 C32.58363062 26.08113411 32.58363062 26.08113411 30 24 C29.34 24 28.68 24 28 24 C28 24.66 28 25.32 28 26 C24.17057052 28.90108294 20.72463088 29.53680089 16 30 C16 30.99 16 31.98 16 33 C13.69 33 11.38 33 9 33 C10.48588783 29.18034485 12.55379466 27.65852245 15.9375 25.4375 C19.49488296 23.11570505 19.49488296 23.11570505 22.62890625 20.28515625 C24 19 24 19 27 19 C26.34 18.01 25.68 17.02 25 16 C24.92094936 13.66800612 24.91201231 11.33167378 25 9 C23.865625 9.639375 22.73125 10.27875 21.5625 10.9375 C20.60537109 11.47697266 20.60537109 11.47697266 19.62890625 12.02734375 C18.02121854 12.8972513 18.02121854 12.8972513 17 14 C12.19098458 15.07788277 9.34107066 15.57854912 5 13.0625 C4.01 12.381875 3.02 11.70125 2 11 C2 9.68 2 8.36 2 7 C1.34 7 0.68 7 0 7 C0 4.69 0 2.38 0 0 Z " fill="#020204" transform="translate(53,0)"/>
<path d="M0 0 C0.144375 1.093125 0.28875 2.18625 0.4375 3.3125 C0.88288104 6.93122987 0.88288104 6.93122987 2 10 C1.278125 10.4125 0.55625 10.825 -0.1875 11.25 C-2.98641995 12.99155019 -5.4341242 14.9347829 -8 17 C-9.051875 17.680625 -10.10375 18.36125 -11.1875 19.0625 C-14.17912475 20.86729542 -14.17912475 20.86729542 -16 24 C-13.69 24 -11.38 24 -9 24 C-9 23.01 -9 22.02 -9 21 C-7.75108386 20.51801537 -6.50081192 20.03954323 -5.25 19.5625 C-4.55390625 19.29566406 -3.8578125 19.02882813 -3.140625 18.75390625 C-1.10940997 18.03853307 0.9035291 17.48634348 3 17 C3 16.34 3 15.68 3 15 C3.99 14.67 4.98 14.34 6 14 C6.495 15.485 6.495 15.485 7 17 C7.804375 17.598125 8.60875 18.19625 9.4375 18.8125 C13.44315567 22.23196216 13.87158251 25.51035715 14.3125 30.625 C13.9746723 34.27353917 13.3223291 35.30609824 11 38 C10.29485154 40.14733927 10.29485154 40.14733927 10 42 C9.34 42 8.68 42 8 42 C7.67 43.98 7.34 45.96 7 48 C7.66 46.35 8.32 44.7 9 43 C9.99 43.495 9.99 43.495 11 44 C11.02917228 47.22914752 11.04685663 50.45826083 11.0625 53.6875 C11.07087891 54.59951172 11.07925781 55.51152344 11.08789062 56.45117188 C11.09111328 57.33740234 11.09433594 58.22363281 11.09765625 59.13671875 C11.10289307 59.94842529 11.10812988 60.76013184 11.11352539 61.59643555 C10.99173107 64.17507023 10.66527996 66.50486604 10 69 C5.37434073 72.37494453 -0.39447645 73.52293417 -6 74 C-6 78.29 -6 82.58 -6 87 C-4.68 87 -3.36 87 -2 87 C-2.495 83.04 -2.495 83.04 -3 79 C-2.34 79 -1.68 79 -1 79 C-0.91165316 82.31232698 -0.85916416 85.62434435 -0.8125 88.9375 C-0.78736328 89.86369141 -0.76222656 90.78988281 -0.73632812 91.74414062 C-0.67706887 97.37376967 -1.26692566 101.81727163 -3.44799805 107.02954102 C-4.10584481 109.37782994 -3.76977376 110.71811367 -3 113 C-4.32 113 -5.64 113 -7 113 C-7.66 114.98 -8.32 116.96 -9 119 C-13.29 119 -17.58 119 -22 119 C-22.99 116.03 -22.99 116.03 -24 113 C-24.42539062 112.29101562 -24.85078125 111.58203125 -25.2890625 110.8515625 C-31.17472947 101.04211755 -29.43075164 89.0126628 -29 78 C-30.98 77.67 -32.96 77.34 -35 77 C-35.33 74.69 -35.66 72.38 -36 70 C-35.01 71.32 -34.02 72.64 -33 74 C-32.87184635 71.6147267 -32.87184635 71.6147267 -34 69 C-35.76664265 67.89079813 -35.76664265 67.89079813 -37.875 67 C-41.68100037 65.29104456 -43.41210403 64.01644274 -45 60 C-45.8547361 55.94000351 -46.1748501 52.9651191 -45 49 C-45.33 48.34 -45.66 47.68 -46 47 C-46.25860135 42.94857881 -46.30441554 41.45662331 -44 38 C-44.66 38 -45.32 38 -46 38 C-46 37.01 -46 36.02 -46 35 C-48.97 35.495 -48.97 35.495 -52 36 C-51.34 35.34 -50.68 34.68 -50 34 C-49.67 34 -49.34 34 -49 34 C-48.896875 32.906875 -48.79375 31.81375 -48.6875 30.6875 C-48 27 -48 27 -46.44140625 25.60546875 C-44.72566058 24.04653192 -44.72566058 24.04653192 -44.953125 21.4765625 C-45.10007812 20.06503906 -45.10007812 20.06503906 -45.25 18.625 C-45.3982129 13.52512871 -45.3982129 13.52512871 -43.6640625 11.23828125 C-38.79982548 7.70161984 -33.07814452 5.34290329 -27 6 C-26.01 6.66 -25.02 7.32 -24 8 C-24 8.66 -24 9.32 -24 10 C-22.576875 9.2265625 -22.576875 9.2265625 -21.125 8.4375 C-20.09375 7.963125 -19.0625 7.48875 -18 7 C-17.34 7.33 -16.68 7.66 -16 8 C-16.9590625 9.1446875 -16.9590625 9.1446875 -17.9375 10.3125 C-20.14232781 12.88246713 -20.14232781 12.88246713 -21 16 C-24.0625 17.6875 -24.0625 17.6875 -27 19 C-19.94417074 17.05709049 -14.1346545 13.95742848 -8 10 C-8.495 7.525 -8.495 7.525 -9 5 C-3.375 0 -3.375 0 0 0 Z " fill="#53413E" transform="translate(78,9)"/>
<path d="M0 0 C0 0.66 0 1.32 0 2 C-0.66 2 -1.32 2 -2 2 C-1.505 4.475 -1.505 4.475 -1 7 C-1.66 7 -2.32 7 -3 7 C-3 7.66 -3 8.32 -3 9 C-3.66 9 -4.32 9 -5 9 C-5.04125 9.598125 -5.0825 10.19625 -5.125 10.8125 C-6.43265527 14.08163817 -8.91987498 14.52410676 -12 16 C-12.495 17.485 -12.495 17.485 -13 19 C-13.639375 19.103125 -14.27875 19.20625 -14.9375 19.3125 C-15.618125 19.539375 -16.29875 19.76625 -17 20 C-17.70626239 21.98636298 -18.36893571 23.98848259 -19 26 C-21.18873148 28.54175269 -23.19696092 30.13130728 -26 32 C-24.515 32.495 -24.515 32.495 -23 33 C-23 32.34 -23 31.68 -23 31 C-19.46588679 28.87953208 -16.05606165 28.46800711 -12 28 C-12 28.66 -12 29.32 -12 30 C-7.44262737 29.56179109 -4.42346555 29.14958831 -1 26 C-0.34 26.33 0.32 26.66 1 27 C-5.28819663 31.89989347 -11.44166709 36.2515153 -19 39 C-18.01 39.33 -17.02 39.66 -16 40 C-16 42.97 -16 45.94 -16 49 C-15.05125 48.34 -14.1025 47.68 -13.125 47 C-10 45 -10 45 -8 45 C-8.1875 46.875 -8.1875 46.875 -9 49 C-11.5625 50.25 -11.5625 50.25 -14 51 C-14 51.66 -14 52.32 -14 53 C-16.046875 54.875 -16.046875 54.875 -18.75 57 C-20.07257812 58.051875 -20.07257812 58.051875 -21.421875 59.125 C-24 61 -24 61 -26.265625 62.125 C-28.18793906 62.87827941 -28.18793906 62.87827941 -29 65 C-26.03 64.505 -26.03 64.505 -23 64 C-23 63.34 -23 62.68 -23 62 C-18.72279835 58.55064383 -14.28123341 58.3336727 -9 58 C-9 59.32 -9 60.64 -9 62 C-8.01 62 -7.02 62 -6 62 C-7.2808625 65.64553172 -8.16671013 67.16671013 -11 70 C-7.7 70 -4.4 70 -1 70 C-1 70.66 -1 71.32 -1 72 C-6.95360717 74.36487951 -12.13048348 74.03791559 -18.44140625 73.77734375 C-22.28435908 74.01779195 -23.85595157 74.914772 -27 77 C-30.8125 77.1875 -30.8125 77.1875 -34 77 C-34.33 74.69 -34.66 72.38 -35 70 C-34.01 71.32 -33.02 72.64 -32 74 C-31.87184635 71.6147267 -31.87184635 71.6147267 -33 69 C-34.76664265 67.89079813 -34.76664265 67.89079813 -36.875 67 C-40.68100037 65.29104456 -42.41210403 64.01644274 -44 60 C-44.8547361 55.94000351 -45.1748501 52.9651191 -44 49 C-44.33 48.34 -44.66 47.68 -45 47 C-45.25860135 42.94857881 -45.30441554 41.45662331 -43 38 C-43.66 38 -44.32 38 -45 38 C-45 37.01 -45 36.02 -45 35 C-47.97 35.495 -47.97 35.495 -51 36 C-50.34 35.34 -49.68 34.68 -49 34 C-48.67 34 -48.34 34 -48 34 C-47.896875 32.906875 -47.79375 31.81375 -47.6875 30.6875 C-47 27 -47 27 -45.44140625 25.60546875 C-43.72566058 24.04653192 -43.72566058 24.04653192 -43.953125 21.4765625 C-44.10007812 20.06503906 -44.10007812 20.06503906 -44.25 18.625 C-44.3982129 13.52512871 -44.3982129 13.52512871 -42.6640625 11.23828125 C-37.79982548 7.70161984 -32.07814452 5.34290329 -26 6 C-25.01 6.66 -24.02 7.32 -23 8 C-23 8.66 -23 9.32 -23 10 C-21.576875 9.2265625 -21.576875 9.2265625 -20.125 8.4375 C-19.09375 7.963125 -18.0625 7.48875 -17 7 C-16.34 7.33 -15.68 7.66 -15 8 C-15.9590625 9.1446875 -15.9590625 9.1446875 -16.9375 10.3125 C-19.14232781 12.88246713 -19.14232781 12.88246713 -20 16 C-23.0625 17.6875 -23.0625 17.6875 -26 19 C-18.94417074 17.05709049 -13.1346545 13.95742848 -7 10 C-7.495 7.525 -7.495 7.525 -8 5 C-2.25 0 -2.25 0 0 0 Z " fill="#C99FC2" transform="translate(77,9)"/>
<path d="M0 0 C17.49 0 34.98 0 53 0 C53 2.31 53 4.62 53 7 C53.66 7 54.32 7 55 7 C55.020625 7.598125 55.04125 8.19625 55.0625 8.8125 C55.89103546 11.36615375 55.89103546 11.36615375 59.1875 12.75 C62.52494578 14.02567659 65.41619431 14.26222968 69 14 C69.99 16.475 69.99 16.475 71 19 C66.67476255 21.83919218 62.27108233 24.47215288 57.6875 26.875 C56.86636719 27.30554688 56.04523437 27.73609375 55.19921875 28.1796875 C53 29 53 29 50 28 C53.625 25 53.625 25 57 25 C57.12375 24.236875 57.2475 23.47375 57.375 22.6875 C58 20 58 20 60 17 C59.01 17.66 58.02 18.32 57 19 C56.01 19 55.02 19 54 19 C54 18.34 54 17.68 54 17 C47.12381382 15.4997412 43.10424271 16.59270081 37 20 C36.01 20.66 35.02 21.32 34 22 C33.78724245 24.83233486 34.00646322 27.53862251 34.1875 30.37109375 C33.96319833 33.51599009 33.2657402 33.9694379 31 36 C30.26958147 39.61023099 30.26958147 39.61023099 30 43 C28.515 43.495 28.515 43.495 27 44 C28.65 44 30.3 44 32 44 C32 44.99 32 45.98 32 47 C32.66 47 33.32 47 34 47 C33.91621094 47.60328125 33.83242188 48.2065625 33.74609375 48.828125 C33.64425781 49.62734375 33.54242188 50.4265625 33.4375 51.25 C33.28087891 52.43335937 33.28087891 52.43335937 33.12109375 53.640625 C32.87628837 55.99530555 32.87628837 55.99530555 33.59765625 58.171875 C33.73042969 58.77515625 33.86320312 59.3784375 34 60 C33.34 60.66 32.68 61.32 32 62 C32 61.34 32 60.68 32 60 C31.01 60 30.02 60 29 60 C29 59.34 29 58.68 29 58 C28.34 58 27.68 58 27 58 C27.33 59.65 27.66 61.3 28 63 C27.01 63 26.02 63 25 63 C25 64.32 25 65.64 25 67 C23.35 66.67 21.7 66.34 20 66 C20.495 64.515 20.495 64.515 21 63 C21.66 63.33 22.32 63.66 23 64 C23 62.68 23 61.36 23 60 C20.36 60.66 17.72 61.32 15 62 C14.67 60.68 14.34 59.36 14 58 C15.4375 55.75 15.4375 55.75 17 54 C17.66 54.33 18.32 54.66 19 55 C19 56.32 19 57.64 19 59 C19.33 57.68 19.66 56.36 20 55 C21.32 55 22.64 55 24 55 C24.33 54.34 24.66 53.68 25 53 C24.34 53 23.68 53 23 53 C23 52.01 23 51.02 23 50 C22.030625 49.71125 21.06125 49.4225 20.0625 49.125 C17 48 17 48 16 46 C15.01 46 14.02 46 13 46 C12.505 48.475 12.505 48.475 12 51 C12.99 51 13.98 51 15 51 C14.67 51.99 14.34 52.98 14 54 C13.34 54 12.68 54 12 54 C9.70986347 50.5647952 9.82157027 49.014669 10 45 C9.34 45 8.68 45 8 45 C8 45.66 8 46.32 8 47 C7.34 47 6.68 47 6 47 C5.67 45.68 5.34 44.36 5 43 C7.97 42.505 7.97 42.505 11 42 C11.33 41.01 11.66 40.02 12 39 C12.99 38.505 12.99 38.505 14 38 C13.34 37.67 12.68 37.34 12 37 C12 36.34 12 35.68 12 35 C10.35 35.66 8.7 36.32 7 37 C7.6875 35.0625 7.6875 35.0625 9 33 C11.625 32.25 11.625 32.25 14 32 C14 31.34 14 30.68 14 30 C16.97 30.66 19.94 31.32 23 32 C22.34 30.02 21.68 28.04 21 26 C21.598125 26.185625 22.19625 26.37125 22.8125 26.5625 C25.16408762 27.22093687 25.16408762 27.22093687 28 26 C28.33 26.66 28.66 27.32 29 28 C29.99 28 30.98 28 32 28 C32 26.68 32 25.36 32 24 C29.36 24 26.72 24 24 24 C24.309375 22.9171875 24.309375 22.9171875 24.625 21.8125 C25.05952211 18.55358415 24.41680669 16.91695496 23 14 C22.01 14.99 21.02 15.98 20 17 C20.99 17 21.98 17 23 17 C23 17.66 23 18.32 23 19 C22.01 19 21.02 19 20 19 C20.02320312 19.62648438 20.04640625 20.25296875 20.0703125 20.8984375 C20.09738281 22.12433594 20.09738281 22.12433594 20.125 23.375 C20.14820312 24.18710937 20.17140625 24.99921875 20.1953125 25.8359375 C20 28 20 28 18 30 C17.34 29.01 16.68 28.02 16 27 C14.68 27 13.36 27 12 27 C12.33 27.99 12.66 28.98 13 30 C11.35 30.33 9.7 30.66 8 31 C8 30.01 8 29.02 8 28 C8.66 28 9.32 28 10 28 C9.67 26.68 9.34 25.36 9 24 C8.34 24.33 7.68 24.66 7 25 C7 24.34 7 23.68 7 23 C5.68 23.33 4.36 23.66 3 24 C3.66 24.33 4.32 24.66 5 25 C5 26.98 5 28.96 5 31 C4.360625 30.34 3.72125 29.68 3.0625 29 C1.35917681 26.88397569 1.35917681 26.88397569 0 27 C0 18.09 0 9.18 0 0 Z " fill="#121115" transform="translate(0,0)"/>
<path d="M0 0 C0 0.33 0 0.66 0 1 C-2.31 1.33 -4.62 1.66 -7 2 C-7 6.29 -7 10.58 -7 15 C-5.68 15 -4.36 15 -3 15 C-3.33 12.36 -3.66 9.72 -4 7 C-3.34 7 -2.68 7 -2 7 C-1.91165316 10.31232698 -1.85916416 13.62434435 -1.8125 16.9375 C-1.78736328 17.86369141 -1.76222656 18.78988281 -1.73632812 19.74414062 C-1.67706887 25.37376967 -2.26692566 29.81727163 -4.44799805 35.02954102 C-5.10584481 37.37782994 -4.76977376 38.71811367 -4 41 C-5.32 41 -6.64 41 -8 41 C-8.66 42.98 -9.32 44.96 -10 47 C-14.29 47 -18.58 47 -23 47 C-23.66 45.02 -24.32 43.04 -25 41 C-25.42539062 40.29101562 -25.85078125 39.58203125 -26.2890625 38.8515625 C-32.17472947 29.04211755 -30.43075164 17.0126628 -30 6 C-31.32 5.67 -32.64 5.34 -34 5 C-32.906875 4.71125 -31.81375 4.4225 -30.6875 4.125 C-26.95986155 3.18106796 -26.95986155 3.18106796 -24 1 C-21.46226616 0.88282986 -19.0308061 0.85796038 -16.5 0.9375 C-10.81337722 1.08372744 -5.64997841 -0.12555508 0 0 Z " fill="#2F2F36" transform="translate(79,81)"/>
<path d="M0 0 C0 0.66 0 1.32 0 2 C-0.66 2 -1.32 2 -2 2 C-1.505 4.475 -1.505 4.475 -1 7 C-1.66 7 -2.32 7 -3 7 C-3 7.66 -3 8.32 -3 9 C-3.66 9 -4.32 9 -5 9 C-5.04125 9.598125 -5.0825 10.19625 -5.125 10.8125 C-6.43265527 14.08163817 -8.91987498 14.52410676 -12 16 C-12.495 17.485 -12.495 17.485 -13 19 C-13.639375 19.103125 -14.27875 19.20625 -14.9375 19.3125 C-15.618125 19.539375 -16.29875 19.76625 -17 20 C-17.70626239 21.98636298 -18.36893571 23.98848259 -19 26 C-23.45416494 31.17257864 -28.55597739 33.27331794 -35 35 C-38.0625 35.1875 -38.0625 35.1875 -40 35 C-40.93423645 31.98968256 -41.04449911 31.13349732 -40 28 C-41.98 28.33 -43.96 28.66 -46 29 C-45.42415568 26.61435923 -44.77772405 24.33317216 -44 22 C-44.10389433 20.54001127 -44.230835 19.08156361 -44.375 17.625 C-44.42840723 13.51931923 -44.42840723 13.51931923 -42.65625 11.37109375 C-37.75082256 7.76732579 -32.17465515 5.33246971 -26 6 C-25.01 6.66 -24.02 7.32 -23 8 C-23 8.66 -23 9.32 -23 10 C-21.576875 9.2265625 -21.576875 9.2265625 -20.125 8.4375 C-19.09375 7.963125 -18.0625 7.48875 -17 7 C-16.34 7.33 -15.68 7.66 -15 8 C-15.639375 8.763125 -16.27875 9.52625 -16.9375 10.3125 C-19.14232781 12.88246713 -19.14232781 12.88246713 -20 16 C-23.0625 17.6875 -23.0625 17.6875 -26 19 C-18.94417074 17.05709049 -13.1346545 13.95742848 -7 10 C-7.495 7.525 -7.495 7.525 -8 5 C-2.25 0 -2.25 0 0 0 Z " fill="#CABCD4" transform="translate(77,9)"/>
<path d="M0 0 C0.99 0.33 1.98 0.66 3 1 C2.34 1.66 1.68 2.32 1 3 C0.89883934 5.81050716 1.0693933 8.56376503 1.22265625 11.37109375 C0.95763696 14.50018115 0.25549905 14.97348563 -2 17 C-2.73041853 20.61023099 -2.73041853 20.61023099 -3 24 C-3.99 24.33 -4.98 24.66 -6 25 C-4.35 25 -2.7 25 -1 25 C-1 25.99 -1 26.98 -1 28 C-0.34 28 0.32 28 1 28 C0.87431641 28.90492187 0.87431641 28.90492187 0.74609375 29.828125 C0.64425781 30.62734375 0.54242188 31.4265625 0.4375 32.25 C0.33308594 33.03890625 0.22867188 33.8278125 0.12109375 34.640625 C-0.12371163 36.99530555 -0.12371163 36.99530555 0.59765625 39.171875 C0.73042969 39.77515625 0.86320312 40.3784375 1 41 C0.34 41.66 -0.32 42.32 -1 43 C-1 42.34 -1 41.68 -1 41 C-1.99 41 -2.98 41 -4 41 C-4 40.34 -4 39.68 -4 39 C-4.66 39 -5.32 39 -6 39 C-5.67 40.65 -5.34 42.3 -5 44 C-5.99 44 -6.98 44 -8 44 C-8 45.32 -8 46.64 -8 48 C-9.65 47.67 -11.3 47.34 -13 47 C-12.67 46.01 -12.34 45.02 -12 44 C-11.34 44.33 -10.68 44.66 -10 45 C-10 43.68 -10 42.36 -10 41 C-12.64 41.66 -15.28 42.32 -18 43 C-18.33 41.68 -18.66 40.36 -19 39 C-17.5625 36.75 -17.5625 36.75 -16 35 C-15.34 35.33 -14.68 35.66 -14 36 C-14 37.32 -14 38.64 -14 40 C-13.67 38.68 -13.34 37.36 -13 36 C-11.68 36 -10.36 36 -9 36 C-8.67 35.34 -8.34 34.68 -8 34 C-8.66 34 -9.32 34 -10 34 C-10 33.01 -10 32.02 -10 31 C-10.969375 30.71125 -11.93875 30.4225 -12.9375 30.125 C-16 29 -16 29 -17 27 C-17.99 27 -18.98 27 -20 27 C-20.33 28.65 -20.66 30.3 -21 32 C-20.01 32 -19.02 32 -18 32 C-18.33 32.99 -18.66 33.98 -19 35 C-19.66 35 -20.32 35 -21 35 C-23.29013653 31.5647952 -23.17842973 30.014669 -23 26 C-23.66 26 -24.32 26 -25 26 C-25 26.66 -25 27.32 -25 28 C-25.66 28 -26.32 28 -27 28 C-27.33 26.68 -27.66 25.36 -28 24 C-26.02 23.67 -24.04 23.34 -22 23 C-21.67 22.01 -21.34 21.02 -21 20 C-20.34 19.67 -19.68 19.34 -19 19 C-19.66 18.67 -20.32 18.34 -21 18 C-21 17.34 -21 16.68 -21 16 C-22.65 16.66 -24.3 17.32 -26 18 C-25.3125 16.0625 -25.3125 16.0625 -24 14 C-21.375 13.25 -21.375 13.25 -19 13 C-19 12.34 -19 11.68 -19 11 C-14.545 11.99 -14.545 11.99 -10 13 C-10.66 11.02 -11.32 9.04 -12 7 C-11.401875 7.185625 -10.80375 7.37125 -10.1875 7.5625 C-7.83591238 8.22093687 -7.83591238 8.22093687 -5 7 C-4.67 7.66 -4.34 8.32 -4 9 C-3.01 9 -2.02 9 -1 9 C-1 7.68 -1 6.36 -1 5 C-2.65 5 -4.3 5 -6 5 C-5.67 3.68 -5.34 2.36 -5 1 C-3.68 1 -2.36 1 -1 1 C-0.67 0.67 -0.34 0.34 0 0 Z " fill="#121117" transform="translate(33,19)"/>
<path d="M0 0 C2.64 0 5.28 0 8 0 C8 2.97 8 5.94 8 9 C8.94875 8.34 9.8975 7.68 10.875 7 C14 5 14 5 16 5 C15.8125 6.875 15.8125 6.875 15 9 C12.4375 10.25 12.4375 10.25 10 11 C10 11.66 10 12.32 10 13 C7.953125 14.875 7.953125 14.875 5.25 17 C4.36828125 17.70125 3.4865625 18.4025 2.578125 19.125 C0 21 0 21 -2.265625 22.125 C-4.18793906 22.87827941 -4.18793906 22.87827941 -5 25 C-3.02 24.67 -1.04 24.34 1 24 C1 23.34 1 22.68 1 22 C5.27720165 18.55064383 9.71876659 18.3336727 15 18 C15 19.32 15 20.64 15 22 C15.99 22 16.98 22 18 22 C16.7191375 25.64553172 15.83328987 27.16671013 13 30 C16.3 30 19.6 30 23 30 C23 30.66 23 31.32 23 32 C17.04639283 34.36487951 11.86951652 34.03791559 5.55859375 33.77734375 C1.71564092 34.01779195 0.14404843 34.914772 -3 37 C-6.8125 37.1875 -6.8125 37.1875 -10 37 C-10.33 34.69 -10.66 32.38 -11 30 C-10.01 31.32 -9.02 32.64 -8 34 C-8.185625 32.989375 -8.37125 31.97875 -8.5625 30.9375 C-9.03218243 26.71035817 -9.30620012 24.06373371 -8 20 C-4.22078485 16.1673414 -0.338257 13.07216578 5 12 C6.3479743 11.36345658 7.68596724 10.70394612 9 10 C8.34 10 7.68 10 7 10 C7 9.34 7 8.68 7 8 C6.34 8 5.68 8 5 8 C5 7.34 5 6.68 5 6 C4.01 5.67 3.02 5.34 2 5 C0.8125 2.4375 0.8125 2.4375 0 0 Z " fill="#B08CAD" transform="translate(53,49)"/>
<path d="M0 0 C-0.66 1.65 -1.32 3.3 -2 5 C-2.66 5 -3.32 5 -4 5 C-4.33 5.99 -4.66 6.98 -5 8 C-5.99 8 -6.98 8 -8 8 C-8.33 9.32 -8.66 10.64 -9 12 C-8.34 12.33 -7.68 12.66 -7 13 C-7.99 13.495 -7.99 13.495 -9 14 C-7.10388566 13.85786703 -5.20811606 13.71113093 -3.3125 13.5625 C-2.25675781 13.48128906 -1.20101562 13.40007812 -0.11328125 13.31640625 C2.65269654 13.03529684 5.28069496 12.55876131 8 12 C9.6662553 11.9629721 11.33401319 11.95240038 13 12 C13 16 13 16 11.4609375 17.59765625 C10.77257812 18.08105469 10.08421875 18.56445312 9.375 19.0625 C8.65054688 19.57167969 7.92609375 20.08085938 7.1796875 20.60546875 C4.54488904 22.29117314 1.85173266 23.7167203 -1 25 C0.98 25 2.96 25 5 25 C5 25.66 5 26.32 5 27 C5.66 27 6.32 27 7 27 C7 26.34 7 25.68 7 25 C7.66 25 8.32 25 9 25 C8.67 26.32 8.34 27.64 8 29 C5.69 29.33 3.38 29.66 1 30 C1 29.34 1 28.68 1 28 C-2.63 28.33 -6.26 28.66 -10 29 C-9.67 28.34 -9.34 27.68 -9 27 C-8.34 27 -7.68 27 -7 27 C-6.690625 26.21625 -6.38125 25.4325 -6.0625 24.625 C-5 22 -5 22 -4 20 C-4.99 20 -5.98 20 -7 20 C-7 18.68 -7 17.36 -7 16 C-8.46015291 16.28241641 -9.91809793 16.57626614 -11.375 16.875 C-12.59316406 17.11863281 -12.59316406 17.11863281 -13.8359375 17.3671875 C-16.18673923 17.86658932 -16.18673923 17.86658932 -18 20 C-18.99 20 -19.98 20 -21 20 C-21 20.66 -21 21.32 -21 22 C-22.98 22.33 -24.96 22.66 -27 23 C-25.83759637 19.51278911 -25.25461129 19.2980639 -22.1875 17.5625 C-18.99010095 15.67494779 -16.58387025 13.68324987 -14 11 C-13.34 11 -12.68 11 -12 11 C-12 10.34 -12 9.68 -12 9 C-11.195625 8.7525 -10.39125 8.505 -9.5625 8.25 C-6.828919 7.27761141 -6.828919 7.27761141 -6.1875 4.875 C-6.0946875 3.946875 -6.0946875 3.946875 -6 3 C-7.423125 3.99 -7.423125 3.99 -8.875 5 C-12 7 -12 7 -14 7 C-14 5.68 -14 4.36 -14 3 C-4.58997722 -0.44419134 -4.58997722 -0.44419134 0 0 Z " fill="#6B5759" transform="translate(75,51)"/>
<path d="M0 0 C0.33 0 0.66 0 1 0 C1.144375 1.093125 1.28875 2.18625 1.4375 3.3125 C1.88288104 6.93122987 1.88288104 6.93122987 3 10 C1.9171875 10.61875 1.9171875 10.61875 0.8125 11.25 C-1.98641995 12.99155019 -4.4341242 14.9347829 -7 17 C-8.051875 17.680625 -9.10375 18.36125 -10.1875 19.0625 C-13.17912475 20.86729542 -13.17912475 20.86729542 -15 24 C-12.69 24 -10.38 24 -8 24 C-8 23.01 -8 22.02 -8 21 C-6.75108386 20.51801537 -5.50081192 20.03954323 -4.25 19.5625 C-3.55390625 19.29566406 -2.8578125 19.02882813 -2.140625 18.75390625 C-0.10940997 18.03853307 1.9035291 17.48634348 4 17 C4 16.34 4 15.68 4 15 C4.99 14.67 5.98 14.34 7 14 C6.67 16.31 6.34 18.62 6 21 C3.36 21.66 0.72 22.32 -2 23 C-2 23.66 -2 24.32 -2 25 C-1.0925 24.505 -0.185 24.01 0.75 23.5 C4 22 4 22 8 22 C8.3125 24.75 8.3125 24.75 8 28 C4.26492085 31.79167125 0.84453344 32.78606852 -4.3125 33.75 C-5.56675781 33.99234375 -6.82101563 34.2346875 -8.11328125 34.484375 C-9.06589844 34.65453125 -10.01851562 34.8246875 -11 35 C-9.50011061 32.00022122 -6.94840874 31.44411857 -4 30 C-3.34 29.34 -2.68 28.68 -2 28 C-3.051875 28.7425 -3.051875 28.7425 -4.125 29.5 C-7.37119719 31.1936681 -9.39340156 31.25162315 -13 31 C-12.67 30.01 -12.34 29.02 -12 28 C-12.66 28 -13.32 28 -14 28 C-14.33 28.66 -14.66 29.32 -15 30 C-17.64860427 30.59355614 -20.29197322 30.74209269 -23 31 C-23 31.66 -23 32.32 -23 33 C-24.32 32.67 -25.64 32.34 -27 32 C-26.50628906 31.68546875 -26.01257812 31.3709375 -25.50390625 31.046875 C-24.86324219 30.61890625 -24.22257812 30.1909375 -23.5625 29.75 C-22.92441406 29.33234375 -22.28632812 28.9146875 -21.62890625 28.484375 C-19.6712241 26.70039606 -19.51610115 25.54508705 -19 23 C-17.09843863 20.85307587 -15.56872921 19.28436461 -13 18 C-13 17.01 -13 16.02 -13 15 C-10.69 14.34 -8.38 13.68 -6 13 C-5.67 11.68 -5.34 10.36 -5 9 C-4.34 9 -3.68 9 -3 9 C-3 8.34 -3 7.68 -3 7 C-2.34 7 -1.68 7 -1 7 C-1.33 5.35 -1.66 3.7 -2 2 C-1.34 2 -0.68 2 0 2 C0 1.34 0 0.68 0 0 Z " fill="#58363C" transform="translate(77,9)"/>
<path d="M0 0 C5.53846154 -0.36923077 5.53846154 -0.36923077 7.875 1.5 C8.24625 1.995 8.6175 2.49 9 3 C6.69 3 4.38 3 2 3 C2.0721875 3.61488281 2.144375 4.22976562 2.21875 4.86328125 C2.3115625 5.67152344 2.404375 6.47976562 2.5 7.3125 C2.5928125 8.11300781 2.685625 8.91351563 2.78125 9.73828125 C3 12 3 12 3 15 C4.65 14.34 6.3 13.68 8 13 C7.34 14.98 6.68 16.96 6 19 C5.01 19 4.02 19 3 19 C2.67 19.99 2.34 20.98 2 22 C0.01753602 23.03432904 -1.98413316 24.03238392 -4 25 C-5.81554159 26.56102491 -5.81554159 26.56102491 -7 28 C-9.4375 26.9375 -9.4375 26.9375 -12 25 C-13.48235294 18.96470588 -13.48235294 18.96470588 -12 16 C-11.34 16 -10.68 16 -10 16 C-10.06960937 15.25234375 -10.13921875 14.5046875 -10.2109375 13.734375 C-10.64788065 5.78617097 -10.64788065 5.78617097 -8.6640625 3.37890625 C-7 2.3125 -7 2.3125 -4 1 C-4 1.99 -4 2.98 -4 4 C-2.68 4 -1.36 4 0 4 C0 2.68 0 1.36 0 0 Z " fill="#CBAACE" transform="translate(45,44)"/>
<path d="M0 0 C0 5.94 0 11.88 0 18 C-0.66 18 -1.32 18 -2 18 C-2.33 16.02 -2.66 14.04 -3 12 C-3.66 12 -4.32 12 -5 12 C-5.28875 12.86625 -5.5775 13.7325 -5.875 14.625 C-6.91666667 17.75 -7.95833333 20.875 -9 24 C-10.32 24 -11.64 24 -13 24 C-12.67 27.3 -12.34 30.6 -12 34 C-14.44687039 31.55312961 -14.96036711 29.8880324 -15.11352539 26.45629883 C-15.10828857 25.46654053 -15.10305176 24.47678223 -15.09765625 23.45703125 C-15.09282227 21.84731445 -15.09282227 21.84731445 -15.08789062 20.20507812 C-15.07951172 19.08552734 -15.07113281 17.96597656 -15.0625 16.8125 C-15.05798828 15.68134766 -15.05347656 14.55019531 -15.04882812 13.38476562 C-15.03703498 10.58979073 -15.0205765 7.7949218 -15 5 C-16.32 4.67 -17.64 4.34 -19 4 C-17.906875 3.71125 -16.81375 3.4225 -15.6875 3.125 C-5.44444444 0 -5.44444444 0 0 0 Z " fill="#36343C" transform="translate(64,82)"/>
<path d="M0 0 C5.94 0 11.88 0 18 0 C20 4 20 4 20 7 C18.576875 7.3403125 18.576875 7.3403125 17.125 7.6875 C13.80676612 8.69083714 13.80676612 8.69083714 12.625 11.625 C12.41875 12.40875 12.2125 13.1925 12 14 C11.34 13.34 10.68 12.68 10 12 C10.33 11.01 10.66 10.02 11 9 C10.01 9.66 9.02 10.32 8 11 C6.68 11 5.36 11 4 11 C3.67 11.99 3.34 12.98 3 14 C4.98 13.67 6.96 13.34 9 13 C9 13.66 9 14.32 9 15 C9.66 15 10.32 15 11 15 C11 15.66 11 16.32 11 17 C11.66 17 12.32 17 13 17 C13 17.66 13 18.32 13 19 C11.68 19.33 10.36 19.66 9 20 C9 19.34 9 18.68 9 18 C8.34 18 7.68 18 7 18 C7 18.66 7 19.32 7 20 C6.34 20 5.68 20 5 20 C4.67 20.66 4.34 21.32 4 22 C2.68 22.99 1.36 23.98 0 25 C0 16.75 0 8.5 0 0 Z " fill="#0B0A0E" transform="translate(0,0)"/>
<path d="M0 0 C0 1.32 0 2.64 0 4 C0.99 4 1.98 4 3 4 C1.7191375 7.64553172 0.83328987 9.16671013 -2 12 C1.3 12 4.6 12 8 12 C8 12.66 8 13.32 8 14 C2.04639283 16.36487951 -3.13048348 16.03791559 -9.44140625 15.77734375 C-13.25325906 16.01584607 -14.91478991 16.86322701 -18 19 C-18.66 19 -19.32 19 -20 19 C-19.34938905 17.32700041 -18.67966676 15.66140763 -18 14 C-17.731875 13.278125 -17.46375 12.55625 -17.1875 11.8125 C-15.56186485 9.3312674 -13.76813348 8.87414741 -11 8 C-12.65 7.67 -14.3 7.34 -16 7 C-15.34 6.67 -14.68 6.34 -14 6 C-14 5.34 -14 4.68 -14 4 C-9.70579085 0.74681125 -5.32088055 0 0 0 Z " fill="#B490B3" transform="translate(68,67)"/>
<path d="M0 0 C0 0.66 0 1.32 0 2 C-0.66 2 -1.32 2 -2 2 C-1.505 4.475 -1.505 4.475 -1 7 C-1.66 7 -2.32 7 -3 7 C-3 7.66 -3 8.32 -3 9 C-3.66 9 -4.32 9 -5 9 C-5.04125 9.598125 -5.0825 10.19625 -5.125 10.8125 C-6.43265527 14.08163817 -8.91987498 14.52410676 -12 16 C-12.495 17.485 -12.495 17.485 -13 19 C-13.639375 19.103125 -14.27875 19.20625 -14.9375 19.3125 C-15.618125 19.539375 -16.29875 19.76625 -17 20 C-17.70626239 21.98636298 -18.36893571 23.98848259 -19 26 C-23.45416494 31.17257864 -28.55597739 33.27331794 -35 35 C-38.0625 35.1875 -38.0625 35.1875 -40 35 C-40.93423645 31.98968256 -41.04449911 31.13349732 -40 28 C-41.98 28.33 -43.96 28.66 -46 29 C-45.505 27.515 -45.505 27.515 -45 26 C-43.1875 25.1875 -43.1875 25.1875 -41 25 C-38.75 25.9375 -38.75 25.9375 -37 27 C-37 27.66 -37 28.32 -37 29 C-33.04 28.67 -29.08 28.34 -25 28 C-25 27.01 -25 26.02 -25 25 C-23.5 23.3125 -23.5 23.3125 -22 22 C-24.31 22 -26.62 22 -29 22 C-26.75748687 20.50499124 -24.70952089 19.30163094 -22.3125 18.125 C-21.61382812 17.77953125 -20.91515625 17.4340625 -20.1953125 17.078125 C-18 16 -18 16 -15.8046875 14.921875 C-15.10601562 14.57640625 -14.40734375 14.2309375 -13.6875 13.875 C-13.05199219 13.56304687 -12.41648438 13.25109375 -11.76171875 12.9296875 C-9.74477488 11.90369691 -9.74477488 11.90369691 -7 10 C-7.495 7.525 -7.495 7.525 -8 5 C-2.25 0 -2.25 0 0 0 Z " fill="#D4AED1" transform="translate(77,9)"/>
<path d="M0 0 C3.54354616 1.6281158 4.88553425 2.79475107 6.8125 6.25 C8.0230357 10.07274432 8.24371154 13.01937826 8 17 C7.67 16.01 7.34 15.02 7 14 C1.98301691 17.63378311 1.98301691 17.63378311 -0.9375 22.875 C-0.958125 23.57625 -0.97875 24.2775 -1 25 C-2.32 24.67 -3.64 24.34 -5 24 C-5 23.34 -5 22.68 -5 22 C-5.66 21.67 -6.32 21.34 -7 21 C-7 20.34 -7 19.68 -7 19 C-10.63 19 -14.26 19 -18 19 C-14.92385531 15.92385531 -11.11559764 15.77546632 -6.9453125 14.87890625 C-3.96478203 13.98949066 -2.23093033 13.14713952 0 11 C0.80946422 7.89802603 0.80946422 7.89802603 1 5 C0.0925 5.309375 -0.815 5.61875 -1.75 5.9375 C-4.16563338 6.7272263 -6.52780285 7.42949297 -9 8 C-9 7.34 -9 6.68 -9 6 C-5.77208445 3.8480563 -4.71599191 3.79913557 -1 4 C-0.67 2.68 -0.34 1.36 0 0 Z " fill="#51453E" transform="translate(84,26)"/>
<path d="M0 0 C0 0.99 0 1.98 0 3 C0.66 3 1.32 3 2 3 C1.91621094 3.60328125 1.83242188 4.2065625 1.74609375 4.828125 C1.64425781 5.62734375 1.54242188 6.4265625 1.4375 7.25 C1.33308594 8.03890625 1.22867188 8.8278125 1.12109375 9.640625 C0.87628837 11.99530555 0.87628837 11.99530555 1.59765625 14.171875 C1.79681641 15.07679687 1.79681641 15.07679687 2 16 C1.34 16.66 0.68 17.32 0 18 C0 17.34 0 16.68 0 16 C-0.99 16 -1.98 16 -3 16 C-3 15.34 -3 14.68 -3 14 C-3.66 14 -4.32 14 -5 14 C-4.67 15.65 -4.34 17.3 -4 19 C-4.99 19 -5.98 19 -7 19 C-7 20.32 -7 21.64 -7 23 C-8.65 22.67 -10.3 22.34 -12 22 C-11.67 21.01 -11.34 20.02 -11 19 C-10.34 19.33 -9.68 19.66 -9 20 C-9 18.68 -9 17.36 -9 16 C-11.64 16.66 -14.28 17.32 -17 18 C-17.33 16.68 -17.66 15.36 -18 14 C-16.5625 11.75 -16.5625 11.75 -15 10 C-14.34 10.33 -13.68 10.66 -13 11 C-13 12.32 -13 13.64 -13 15 C-12.67 13.68 -12.34 12.36 -12 11 C-10.68 11 -9.36 11 -8 11 C-7.67 10.34 -7.34 9.68 -7 9 C-7.66 9 -8.32 9 -9 9 C-9.33 7.35 -9.66 5.7 -10 4 C-9.34 4.33 -8.68 4.66 -8 5 C-8 5.66 -8 6.32 -8 7 C-7.34 7 -6.68 7 -6 7 C-6 6.01 -6 5.02 -6 4 C-5.34 3.67 -4.68 3.34 -4 3 C-4.66 2.34 -5.32 1.68 -6 1 C-3.92446352 0.4465236 -2.15634036 0 0 0 Z " fill="#403D47" transform="translate(32,44)"/>
<path d="M0 0 C0.66 0.99 1.32 1.98 2 3 C2.515625 3.433125 3.03125 3.86625 3.5625 4.3125 C5.58857965 6.69094132 5.66160172 8.95441552 6 12 C6.99 12.33 7.98 12.66 9 13 C8.01 13.33 7.02 13.66 6 14 C6 14.99 6 15.98 6 17 C5.34 17 4.68 17 4 17 C3.67 16.34 3.34 15.68 3 15 C2.01 15 1.02 15 0 15 C-0.99 14.67 -1.98 14.34 -3 14 C-3.33 13.34 -3.66 12.68 -4 12 C-4.99 12 -5.98 12 -7 12 C-7.33 13.65 -7.66 15.3 -8 17 C-7.01 17 -6.02 17 -5 17 C-5.33 17.99 -5.66 18.98 -6 20 C-6.66 20 -7.32 20 -8 20 C-10.29013653 16.5647952 -10.17842973 15.014669 -10 11 C-10.66 11 -11.32 11 -12 11 C-12 11.66 -12 12.32 -12 13 C-12.66 13 -13.32 13 -14 13 C-14.33 11.68 -14.66 10.36 -15 9 C-13.02 8.67 -11.04 8.34 -9 8 C-8.67 7.01 -8.34 6.02 -8 5 C-5.07920195 2.92469613 -3.62453269 2 0 2 C0 1.34 0 0.68 0 0 Z " fill="#121115" transform="translate(20,34)"/>
<path d="M0 0 C0.66 0.33 1.32 0.66 2 1 C2.02917228 4.22914752 2.04685663 7.45826083 2.0625 10.6875 C2.07087891 11.59951172 2.07925781 12.51152344 2.08789062 13.45117188 C2.09272461 14.78051758 2.09272461 14.78051758 2.09765625 16.13671875 C2.10551147 17.35427856 2.10551147 17.35427856 2.11352539 18.59643555 C1.9929791 21.14864673 1.559949 23.51026137 1 26 C-0.32 26.33 -1.64 26.66 -3 27 C-3 26.01 -3 25.02 -3 24 C-3.66 24 -4.32 24 -5 24 C-5 24.66 -5 25.32 -5 26 C-5.66 26 -6.32 26 -7 26 C-7 25.34 -7 24.68 -7 24 C-9.31 24.33 -11.62 24.66 -14 25 C-11.87001347 22.72403308 -9.71820831 21.06354789 -7.0625 19.4375 C-6.39347656 19.02371094 -5.72445312 18.60992187 -5.03515625 18.18359375 C-3.05909178 17.03436624 -1.05592396 15.998066 1 15 C1 13.68 1 12.36 1 11 C-1.31 11.66 -3.62 12.32 -6 13 C-6 12.34 -6 11.68 -6 11 C-7.98 11 -9.96 11 -12 11 C-11.67 10.01 -11.34 9.02 -11 8 C-8.46855764 6.84415045 -5.89295228 6.02737497 -3.25 5.16015625 C-0.81289043 4.22013399 -0.81289043 4.22013399 -0.1875 1.87109375 C-0.0946875 0.94490234 -0.0946875 0.94490234 0 0 Z " fill="#5A4942" transform="translate(87,52)"/>
<path d="M0 0 C0 0.33 0 0.66 0 1 C-2.31 1.33 -4.62 1.66 -7 2 C-7 6.29 -7 10.58 -7 15 C-5.68 15 -4.36 15 -3 15 C-3.33 12.36 -3.66 9.72 -4 7 C-3.34 7 -2.68 7 -2 7 C-1.88618045 13.76594019 -2.11978631 20.28837062 -3 27 C-4.32 27.33 -5.64 27.66 -7 28 C-7.66 25.03 -8.32 22.06 -9 19 C-9.33 19 -9.66 19 -10 19 C-10.66 16.36 -11.32 13.72 -12 11 C-12.66 11 -13.32 11 -14 11 C-14 8.03 -14 5.06 -14 2 C-9.15758367 0.66416101 -5.06562383 -0.25328119 0 0 Z " fill="#312F35" transform="translate(79,81)"/>
<path d="M0 0 C6.27 0 12.54 0 19 0 C19 0.99 19 1.98 19 3 C21.31 3 23.62 3 26 3 C26.33 2.34 26.66 1.68 27 1 C27.99 1.33 28.98 1.66 30 2 C29.67 3.65 29.34 5.3 29 7 C28.4225 6.649375 27.845 6.29875 27.25 5.9375 C24.56480906 4.81867044 23.72068232 5.2348081 21 6 C18.75 5.5625 18.75 5.5625 17 5 C16.67 6.32 16.34 7.64 16 9 C16 8.34 16 7.68 16 7 C15.34 7 14.68 7 14 7 C13.67 7.66 13.34 8.32 13 9 C11 7.1875 11 7.1875 9 5 C9 4.01 9 3.02 9 2 C8.34 2 7.68 2 7 2 C7.3403125 3.1446875 7.3403125 3.1446875 7.6875 4.3125 C8 7 8 7 6.75 8.8125 C5 10 5 10 2 10 C2 8.35 2 6.7 2 5 C1.67 6.32 1.34 7.64 1 9 C0.34 9 -0.32 9 -1 9 C-1 7.35 -1 5.7 -1 4 C-0.34 4 0.32 4 1 4 C0.67 2.68 0.34 1.36 0 0 Z " fill="#141318" transform="translate(22,0)"/>
<path d="M0 0 C0.33 0 0.66 0 1 0 C1.144375 1.093125 1.28875 2.18625 1.4375 3.3125 C1.88288104 6.93122987 1.88288104 6.93122987 3 10 C1.9171875 10.61875 1.9171875 10.61875 0.8125 11.25 C-1.98641995 12.99155019 -4.4341242 14.9347829 -7 17 C-8.546875 18.0209375 -8.546875 18.0209375 -10.125 19.0625 C-12.40063129 20.59607761 -14.18012467 21.9779163 -16 24 C-13.36 24.66 -10.72 25.32 -8 26 C-7.67 27.65 -7.34 29.3 -7 31 C-8.98 31 -10.96 31 -13 31 C-12.67 30.01 -12.34 29.02 -12 28 C-12.66 28 -13.32 28 -14 28 C-14.33 28.66 -14.66 29.32 -15 30 C-17.64860427 30.59355614 -20.29197322 30.74209269 -23 31 C-23 31.66 -23 32.32 -23 33 C-24.32 32.67 -25.64 32.34 -27 32 C-26.50628906 31.68546875 -26.01257812 31.3709375 -25.50390625 31.046875 C-24.86324219 30.61890625 -24.22257812 30.1909375 -23.5625 29.75 C-22.92441406 29.33234375 -22.28632812 28.9146875 -21.62890625 28.484375 C-19.6712241 26.70039606 -19.51610115 25.54508705 -19 23 C-17.09843863 20.85307587 -15.56872921 19.28436461 -13 18 C-13 17.01 -13 16.02 -13 15 C-10.69 14.34 -8.38 13.68 -6 13 C-5.67 11.68 -5.34 10.36 -5 9 C-4.34 9 -3.68 9 -3 9 C-3 8.34 -3 7.68 -3 7 C-2.34 7 -1.68 7 -1 7 C-1.33 5.35 -1.66 3.7 -2 2 C-1.34 2 -0.68 2 0 2 C0 1.34 0 0.68 0 0 Z " fill="#855871" transform="translate(77,9)"/>
<path d="M0 0 C0.66 0 1.32 0 2 0 C2.33 1.65 2.66 3.3 3 5 C1.68 5.33 0.36 5.66 -1 6 C-1 6.99 -1 7.98 -1 9 C-0.34 9 0.32 9 1 9 C1 8.34 1 7.68 1 7 C3.31 7.66 5.62 8.32 8 9 C5.06025533 10.52431205 2.08410406 11.7964472 -1 13 C-1.928125 13.37125 -2.85625 13.7425 -3.8125 14.125 C-4.534375 14.41375 -5.25625 14.7025 -6 15 C-6 14.34 -6 13.68 -6 13 C-6.66 13 -7.32 13 -8 13 C-8.66 14.32 -9.32 15.64 -10 17 C-10.66 17 -11.32 17 -12 17 C-11.79375 16.236875 -11.5875 15.47375 -11.375 14.6875 C-10.66608797 11.78114056 -10.66608797 11.78114056 -13 9 C-13.125 6.3125 -13.125 6.3125 -13 4 C-12.2575 4.04125 -11.515 4.0825 -10.75 4.125 C-7.88513262 3.99477876 -6.49469347 3.29035869 -4 2 C-3.34 2.33 -2.68 2.66 -2 3 C-1.67 2.34 -1.34 1.68 -1 1 C-0.67 0.67 -0.34 0.34 0 0 Z " fill="#0F0E13" transform="translate(36,7)"/>
<path d="M0 0 C0.66 0.66 1.32 1.32 2 2 C0.35 2 -1.3 2 -3 2 C-1.13433512 5.62793998 -1.13433512 5.62793998 2 8 C2 8.66 2 9.32 2 10 C2.66 10 3.32 10 4 10 C4 10.66 4 11.32 4 12 C4.66 12 5.32 12 6 12 C4.34902793 15.30194414 0.85208637 15.70176977 -2.5 16.875 C-5.56905254 18.25607364 -7.64276357 19.57728478 -10 22 C-10.89055736 25.64182335 -10.89055736 25.64182335 -11 29 C-14 30 -14 30 -17.0625 28.8125 C-19.9873012 27.00783543 -20.90648447 26.17119503 -22 23 C-21.278125 23.268125 -20.55625 23.53625 -19.8125 23.8125 C-18.4203125 23.9053125 -18.4203125 23.9053125 -17 24 C-14.33333333 21.66666667 -14.33333333 21.66666667 -12 19 C-11.01 18.67 -10.02 18.34 -9 18 C-8.67 17.34 -8.34 16.68 -8 16 C-7.05125 15.54625 -6.1025 15.0925 -5.125 14.625 C-2.0427468 13.02222834 -0.79742705 11.8958547 1 9 C-1.31 9 -3.62 9 -6 9 C-6 6.36 -6 3.72 -6 1 C-3.125 0.375 -3.125 0.375 0 0 Z " fill="#B186A8" transform="translate(56,47)"/>
<path d="M0 0 C6.27 0 12.54 0 19 0 C19.66 1.65 20.32 3.3 21 5 C16.67476255 7.83919218 12.27108233 10.47215288 7.6875 12.875 C6.86636719 13.30554687 6.04523437 13.73609375 5.19921875 14.1796875 C3 15 3 15 0 14 C3.625 11 3.625 11 7 11 C7.185625 9.8553125 7.185625 9.8553125 7.375 8.6875 C8 6 8 6 10 3 C9.01 3.66 8.02 4.32 7 5 C6.01 5 5.02 5 4 5 C4 4.34 4 3.68 4 3 C2.68 2.34 1.36 1.68 0 1 C0 0.67 0 0.34 0 0 Z " fill="#54434F" transform="translate(50,14)"/>
<path d="M0 0 C0.33 0.99 0.66 1.98 1 3 C1.99 2.67 2.98 2.34 4 2 C4 4.31 4 6.62 4 9 C4.66 9 5.32 9 6 9 C6 6.69 6 4.38 6 2 C6.33 2 6.66 2 7 2 C7.22262606 4.08185451 7.42757926 6.16560426 7.625 8.25 C7.74101563 9.41015625 7.85703125 10.5703125 7.9765625 11.765625 C7.99955595 14.93872091 7.69705154 16.38317244 6 19 C5.29875 18.814375 4.5975 18.62875 3.875 18.4375 C0.66111302 17.94843024 -1.83560336 18.33768442 -5 19 C-5 17.68 -5 16.36 -5 15 C-4.34 15 -3.68 15 -3 15 C-2.7834375 13.5459375 -2.7834375 13.5459375 -2.5625 12.0625 C-2 9 -2 9 -1 8 C-0.76924918 6.65252916 -0.58846937 5.29622435 -0.4375 3.9375 C-0.293125 2.638125 -0.14875 1.33875 0 0 Z " fill="#53545A" transform="translate(58,91)"/>
<path d="M0 0 C2.97 0 5.94 0 9 0 C9 5.94 9 11.88 9 18 C8.34 18 7.68 18 7 18 C6.67 16.02 6.34 14.04 6 12 C5.34 12 4.68 12 4 12 C3.34 13.98 2.68 15.96 2 18 C-0.45391569 14.31912647 -0.22802759 11.55644412 -0.125 7.3125 C-0.11597656 6.61060547 -0.10695312 5.90871094 -0.09765625 5.18554688 C-0.07413704 3.45688475 -0.03826713 1.72839855 0 0 Z " fill="#16151A" transform="translate(55,82)"/>
<path d="M0 0 C5.53846154 -0.36923077 5.53846154 -0.36923077 7.875 1.5 C8.24625 1.995 8.6175 2.49 9 3 C6.69 3 4.38 3 2 3 C2.33 5.64 2.66 8.28 3 11 C1.1746875 11.185625 1.1746875 11.185625 -0.6875 11.375 C-4.06479059 11.78891306 -6.89756695 12.54573451 -10 14 C-10.35474551 10.92553889 -10.53698855 8.05872891 -10 5 C-7 2.4375 -7 2.4375 -4 1 C-4 1.99 -4 2.98 -4 4 C-2.68 4 -1.36 4 0 4 C0 2.68 0 1.36 0 0 Z " fill="#D6B0D2" transform="translate(45,44)"/>
<path d="M0 0 C3 2 3 2 3.6875 4.125 C3.790625 4.74375 3.89375 5.3625 4 6 C3.01 6.33 2.02 6.66 1 7 C1 7.66 1 8.32 1 9 C-2.82942948 11.90108294 -6.27536912 12.53680089 -11 13 C-11 13.99 -11 14.98 -11 16 C-13.31 16 -15.62 16 -18 16 C-16.51411217 12.18034485 -14.44620534 10.65852245 -11.0625 8.4375 C-7.50511704 6.11570505 -7.50511704 6.11570505 -4.37109375 3.28515625 C-3 2 -3 2 0 2 C0 1.34 0 0.68 0 0 Z " fill="#382622" transform="translate(80,17)"/>
<path d="M0 0 C0.66 0.33 1.32 0.66 2 1 C-4.96087168 6.42405586 -11.33009116 10.87675702 -20 13 C-20.33 11.68 -20.66 10.36 -21 9 C-23.64 8.67 -26.28 8.34 -29 8 C-28.67 7.34 -28.34 6.68 -28 6 C-25.03 6.495 -25.03 6.495 -22 7 C-22 6.34 -22 5.68 -22 5 C-18.46588679 2.87953208 -15.05606165 2.46800711 -11 2 C-11 2.66 -11 3.32 -11 4 C-6.44262737 3.56179109 -3.42346555 3.14958831 0 0 Z " fill="#B58EAB" transform="translate(76,35)"/>
<path d="M0 0 C0 1.32 0 2.64 0 4 C0.99 4 1.98 4 3 4 C1.7191375 7.64553172 0.83328987 9.16671013 -2 12 C1.3 12 4.6 12 8 12 C8 12.66 8 13.32 8 14 C3.40767665 15.82855428 0.02641732 16.12514462 -4.875 15.625 C-6.02742188 15.51414062 -7.17984375 15.40328125 -8.3671875 15.2890625 C-9.23601563 15.19367188 -10.10484375 15.09828125 -11 15 C-10.34 14.34 -9.68 13.68 -9 13 C-8.01 13 -7.02 13 -6 13 C-5.67 12.01 -5.34 11.02 -5 10 C-4.01 10 -3.02 10 -2 10 C-2 9.34 -2 8.68 -2 8 C-1.34 8 -0.68 8 0 8 C0 7.34 0 6.68 0 6 C-1.65 6 -3.3 6 -5 6 C-5 5.34 -5 4.68 -5 4 C-8.02419525 4.58803797 -11.01758453 5.22678118 -14 6 C-14 5.34 -14 4.68 -14 4 C-9.70579085 0.74681125 -5.32088055 0 0 0 Z " fill="#A17E9D" transform="translate(68,67)"/>
<path d="M0 0 C0.66 0 1.32 0 2 0 C1.44894091 3.9492568 0.61064629 7.34920174 -1 11 C-1.66 11 -2.32 11 -3 11 C-3.4125 12.11375 -3.825 13.2275 -4.25 14.375 C-5.29731785 16.80890769 -5.77352813 17.83197248 -7.9375 19.4375 C-10 20 -10 20 -14 20 C-13.67 18.35 -13.34 16.7 -13 15 C-12.01 14.67 -11.02 14.34 -10 14 C-10 13.34 -10 12.68 -10 12 C-10.99 11.67 -11.98 11.34 -13 11 C-9.86650268 9.95550089 -9.01031744 10.06576355 -6 11 C-6 9.35 -6 7.7 -6 6 C-5.01 5.67 -4.02 5.34 -3 5 C-1.8499169 3.03327085 -1.8499169 3.03327085 -1 1 C-0.67 0.67 -0.34 0.34 0 0 Z " fill="#685750" transform="translate(89,40)"/>
<path d="M0 0 C0.33 0 0.66 0 1 0 C1.35161167 6.23785146 0.96708159 11.19040789 -1.44140625 16.9921875 C-2.10075685 19.36216097 -1.77913096 20.69872576 -1 23 C-2.32 23 -3.64 23 -5 23 C-5.66 24.98 -6.32 26.96 -7 29 C-11.29 29 -15.58 29 -20 29 C-20 27.35 -20 25.7 -20 24 C-19.13375 24.185625 -18.2675 24.37125 -17.375 24.5625 C-13.83788828 25.02101448 -11.40211795 25.08249208 -8 24 C-6.54708727 21.53744315 -6.54708727 21.53744315 -6 19 C-5.34 19 -4.68 19 -4 19 C-4.04125 18.0925 -4.0825 17.185 -4.125 16.25 C-4.00468444 13.1217954 -3.6085292 11.61385994 -2 9 C-1.34 9 -0.68 9 0 9 C0 6.03 0 3.06 0 0 Z " fill="#4E4E51" transform="translate(76,99)"/>
<path d="M0 0 C6.35714286 0.48901099 6.35714286 0.48901099 9.4375 2.9375 C11 5 11 5 11 7 C10.34 7 9.68 7 9 7 C9 7.66 9 8.32 9 9 C7.68 9 6.36 9 5 9 C5.33 9.99 5.66 10.98 6 12 C4.35 12.33 2.7 12.66 1 13 C1 12.01 1 11.02 1 10 C1.66 10 2.32 10 3 10 C2.67 8.68 2.34 7.36 2 6 C1.01 6.495 1.01 6.495 0 7 C0 6.34 0 5.68 0 5 C-1.32 5.33 -2.64 5.66 -4 6 C-3.34 6.33 -2.68 6.66 -2 7 C-2 8.98 -2 10.96 -2 13 C-4 11.1875 -4 11.1875 -6 9 C-6 6 -6 6 -5 3 C-3.35 2.67 -1.7 2.34 0 2 C0 1.34 0 0.68 0 0 Z " fill="#333238" transform="translate(7,18)"/>
<path d="M0 0 C2.97 0 5.94 0 9 0 C8.67 0.99 8.34 1.98 8 3 C7.34 3 6.68 3 6 3 C6 3.99 6 4.98 6 6 C4.39796533 6.36368892 2.79325797 6.71561952 1.1875 7.0625 C0.29417969 7.25972656 -0.59914063 7.45695312 -1.51953125 7.66015625 C-4 8 -4 8 -7 7 C-6.67 6.34 -6.34 5.68 -6 5 C-9.05263664 4.01879536 -10.94736336 4.01879536 -14 5 C-13.67 4.01 -13.34 3.02 -13 2 C-8.71 2 -4.42 2 0 2 C0 1.34 0 0.68 0 0 Z " fill="#DDB9DD" transform="translate(46,31)"/>
<path d="M0 0 C-0.165 0.639375 -0.33 1.27875 -0.5 1.9375 C-1.03926667 3.80826821 -1.03926667 3.80826821 -1 5 C-1.32550502 6.66821323 -1.65846063 8.33499557 -2 10 C-3.65 10.33 -5.3 10.66 -7 11 C-7 11.66 -7 12.32 -7 13 C-7.66 13 -8.32 13 -9 13 C-8.67 11.68 -8.34 10.36 -8 9 C-8.66 9 -9.32 9 -10 9 C-10 8.01 -10 7.02 -10 6 C-10.99 6.33 -11.98 6.66 -13 7 C-13 6.01 -13 5.02 -13 4 C-8.65113744 0.28755635 -5.65303162 -0.45224253 0 0 Z " fill="#CFC4DA" transform="translate(47,17)"/>
<path d="M0 0 C0.99 0 1.98 0 3 0 C2.67 1.65 2.34 3.3 2 5 C3.98 4.67 5.96 4.34 8 4 C8 4.66 8 5.32 8 6 C8.66 6 9.32 6 10 6 C10 6.66 10 7.32 10 8 C10.66 8 11.32 8 12 8 C12 8.66 12 9.32 12 10 C10.68 10.33 9.36 10.66 8 11 C8 10.34 8 9.68 8 9 C7.34 9 6.68 9 6 9 C6 9.66 6 10.32 6 11 C5.34 11 4.68 11 4 11 C3.67 11.66 3.34 12.32 3 13 C1.69084721 14.03145371 0.35917857 15.03542166 -1 16 C-1.02685095 13.52076199 -1.04676547 11.0418116 -1.0625 8.5625 C-1.07506836 7.50192383 -1.07506836 7.50192383 -1.08789062 6.41992188 C-1.09653588 4.61306441 -1.05220011 2.80612397 -1 1 C-0.67 0.67 -0.34 0.34 0 0 Z " fill="#0E0E12" transform="translate(1,9)"/>
<path d="M0 0 C0.763125 0.0825 1.52625 0.165 2.3125 0.25 C2.625 3 2.625 3 2.3125 6.25 C-1.42257915 10.04167125 -4.84296656 11.03606852 -10 12 C-11.88138672 12.36351562 -11.88138672 12.36351562 -13.80078125 12.734375 C-14.75339844 12.90453125 -15.70601563 13.0746875 -16.6875 13.25 C-15.6875 11.25 -15.6875 11.25 -12.875 9.875 C-8.94883217 7.87342424 -6.61416832 5.70043737 -4.25 2 C-2.6875 0.25 -2.6875 0.25 0 0 Z " fill="#695250" transform="translate(82.6875,30.75)"/>
<path d="M0 0 C3.04105488 1.52052744 4.71466648 2.48121179 6.375 5.5 C7 8 7 8 6 11 C5.01 11 4.02 11 3 11 C2.34 12.65 1.68 14.3 1 16 C0.01 16 -0.98 16 -2 16 C-1.11223998 12.30099992 -0.05418136 8.65449539 1 5 C0.0925 5.309375 -0.815 5.61875 -1.75 5.9375 C-4.16563338 6.7272263 -6.52780285 7.42949297 -9 8 C-9 7.34 -9 6.68 -9 6 C-5.77208445 3.8480563 -4.71599191 3.79913557 -1 4 C-0.67 2.68 -0.34 1.36 0 0 Z " fill="#392F27" transform="translate(84,26)"/>
<path d="M0 0 C0 0.66 0 1.32 0 2 C-0.66 2 -1.32 2 -2 2 C-1.67 3.65 -1.34 5.3 -1 7 C-1.66 7 -2.32 7 -3 7 C-3 7.66 -3 8.32 -3 9 C-3.66 9 -4.32 9 -5 9 C-5.04125 9.598125 -5.0825 10.19625 -5.125 10.8125 C-6.43265527 14.08163817 -8.91987498 14.52410676 -12 16 C-12.33 16.99 -12.66 17.98 -13 19 C-14.33333333 19.33333333 -15.66666667 19.66666667 -17 20 C-17.33 20.99 -17.66 21.98 -18 23 C-18.12375 22.360625 -18.2475 21.72125 -18.375 21.0625 C-18.58125 20.381875 -18.7875 19.70125 -19 19 C-19.66 18.67 -20.32 18.34 -21 18 C-16.38 15.36 -11.76 12.72 -7 10 C-7.33 8.35 -7.66 6.7 -8 5 C-2.25 0 -2.25 0 0 0 Z " fill="#C0AAC4" transform="translate(77,9)"/>
<path d="M0 0 C0.33 0 0.66 0 1 0 C1 2.97 1 5.94 1 9 C1.66 9 2.32 9 3 9 C3.99 11.31 4.98 13.62 6 16 C6.33 16 6.66 16 7 16 C7.33 19.3 7.66 22.6 8 26 C5.69 25.34 3.38 24.68 1 24 C0.3533402 15.98603754 -0.16677223 8.04212755 0 0 Z " fill="#3C3B41" transform="translate(64,83)"/>
<path d="M0 0 C1.32 0 2.64 0 4 0 C4.33 1.32 4.66 2.64 5 4 C4.34 4 3.68 4 3 4 C3 5.65 3 7.3 3 9 C3.66 9 4.32 9 5 9 C4.67 7.68 4.34 6.36 4 5 C4.66 5 5.32 5 6 5 C6 6.65 6 8.3 6 10 C7.65 9.67 9.3 9.34 11 9 C11 6.69 11 4.38 11 2 C11.66 2 12.32 2 13 2 C16 7.75 16 7.75 16 10 C13.419053 10.5161894 10.84987184 11.02388403 8.25 11.4375 C7.13625 11.7159375 7.13625 11.7159375 6 12 C5.67 12.66 5.34 13.32 5 14 C4.01 13.67 3.02 13.34 2 13 C0.8125 9.9375 0.8125 9.9375 0 7 C0.66 7 1.32 7 2 7 C1.34 4.69 0.68 2.38 0 0 Z " fill="#3E3D44" transform="translate(18,0)"/>
<path d="M0 0 C3.71599191 -0.20086443 4.77208445 -0.1519437 8 2 C8 2.66 8 3.32 8 4 C9.423125 3.2265625 9.423125 3.2265625 10.875 2.4375 C11.90625 1.963125 12.9375 1.48875 14 1 C14.66 1.33 15.32 1.66 16 2 C15.360625 2.763125 14.72125 3.52625 14.0625 4.3125 C11.85767219 6.88246713 11.85767219 6.88246713 11 10 C7.9375 11.6875 7.9375 11.6875 5 13 C5 13.66 5 14.32 5 15 C0.375 17.125 0.375 17.125 -3 16 C-1.71034824 14.62437146 -0.37310707 13.29233607 1 12 C1.66 12 2.32 12 3 12 C3.33 11.01 3.66 10.02 4 9 C7.0625 7.8125 7.0625 7.8125 10 7 C10 6.34 10 5.68 10 5 C8.02 5.66 6.04 6.32 4 7 C4 5.68 4 4.36 4 3 C2.07977297 1.22590192 2.07977297 1.22590192 0 0 Z " fill="#A57B9B" transform="translate(46,15)"/>
<path d="M0 0 C0.33 0 0.66 0 1 0 C1.144375 1.093125 1.28875 2.18625 1.4375 3.3125 C1.88288104 6.93122987 1.88288104 6.93122987 3 10 C1.9171875 10.61875 1.9171875 10.61875 0.8125 11.25 C-2.01937826 12.92742697 -2.01937826 12.92742697 -4.4375 15 C-7.1520243 17.11865311 -9.88497129 18.55114944 -13 20 C-13 18.35 -13 16.7 -13 15 C-10.69 14.34 -8.38 13.68 -6 13 C-5.67 11.68 -5.34 10.36 -5 9 C-4.34 9 -3.68 9 -3 9 C-3 8.34 -3 7.68 -3 7 C-2.34 7 -1.68 7 -1 7 C-1.33 5.35 -1.66 3.7 -2 2 C-1.34 2 -0.68 2 0 2 C0 1.34 0 0.68 0 0 Z " fill="#675454" transform="translate(77,9)"/>
<path d="M0 0 C-0.66666667 1.33333333 -1.33333333 2.66666667 -2 4 C-2.309375 4.680625 -2.61875 5.36125 -2.9375 6.0625 C-4.05267917 8.09606201 -5.29164135 9.44694668 -7 11 C-7.66 10.67 -8.32 10.34 -9 10 C-8.01 8.35 -7.02 6.7 -6 5 C-6.99 5 -7.98 5 -9 5 C-9 3.68 -9 2.36 -9 1 C-9.99 1.495 -9.99 1.495 -11 2 C-12.99960012 2.039992 -15.00047242 2.04346799 -17 2 C-13.75924445 -1.24075555 -10.57327264 -1.56754142 -6.21875 -2.08203125 C-3.67192287 -1.98787039 -2.17708354 -1.28151054 0 0 Z " fill="#7D6371" transform="translate(77,66)"/>
<path d="M0 0 C2.64 0 5.28 0 8 0 C8 2.97 8 5.94 8 9 C8.94875 8.34 9.8975 7.68 10.875 7 C14 5 14 5 16 5 C15.8125 6.875 15.8125 6.875 15 9 C12.4375 10.25 12.4375 10.25 10 11 C10 11.66 10 12.32 10 13 C9.34 12.67 8.68 12.34 8 12 C8.33 11.34 8.66 10.68 9 10 C8.34 10 7.68 10 7 10 C7 9.34 7 8.68 7 8 C6.34 8 5.68 8 5 8 C5 7.34 5 6.68 5 6 C4.01 5.67 3.02 5.34 2 5 C0.8125 2.4375 0.8125 2.4375 0 0 Z " fill="#A37B9B" transform="translate(53,49)"/>
<path d="M0 0 C1.35185656 4.05556967 0.81085399 7.13684482 -1 11 C-4.125 13 -4.125 13 -7 14 C-7.66 11.36 -8.32 8.72 -9 6 C-4.5 2 -4.5 2 0 2 C0 1.34 0 0.68 0 0 Z " fill="#2E2E32" transform="translate(73,107)"/>
<path d="M0 0 C1.98 0 3.96 0 6 0 C6.10477512 5.78591511 5.99250545 11.29309366 5 17 C4.67 17 4.34 17 4 17 C3.34 14.36 2.68 11.72 2 9 C1.34 9 0.68 9 0 9 C0 6.03 0 3.06 0 0 Z " fill="#0A090D" transform="translate(65,83)"/>
<path d="M0 0 C2.97 0.495 2.97 0.495 6 1 C6 1.66 6 2.32 6 3 C7.65 3 9.3 3 11 3 C10 5 10 5 8.4375 5.5625 C4.97188305 6.18453381 1.49740802 6.59196906 -2 7 C-2 6.34 -2 5.68 -2 5 C-3.65 5.66 -5.3 6.32 -7 7 C-6.3125 5.0625 -6.3125 5.0625 -5 3 C-2.375 2.25 -2.375 2.25 0 2 C0 1.34 0 0.68 0 0 Z " fill="#1A191E" transform="translate(14,30)"/>
<path d="M0 0 C7.42857143 1 7.42857143 1 11 2 C11.33 3.98 11.66 5.96 12 8 C9.08060281 9.23512958 7.94329632 8.98072075 4.875 7.9375 C1.41514177 5.60585641 0.88804902 3.99622061 0 0 Z " fill="#45454C" transform="translate(52,116)"/>
<path d="M0 0 C0.33 0 0.66 0 1 0 C1.33 1.65 1.66 3.3 2 5 C2.99 4.67 3.98 4.34 5 4 C5 10.6 5 17.2 5 24 C1.8499891 19.79998547 1.47347778 18.94930888 2 14 C2.66 13.01 3.32 12.02 4 11 C3.34 11 2.68 11 2 11 C2 10.01 2 9.02 2 8 C0.02 8.33 -1.96 8.66 -4 9 C-3.34 8.34 -2.68 7.68 -2 7 C-1.67 7 -1.34 7 -1 7 C-0.67 4.69 -0.34 2.38 0 0 Z " fill="#C29BBD" transform="translate(30,36)"/>
<path d="M0 0 C0.61658031 5.19689119 0.61658031 5.19689119 0 8 C-2.06225326 10.17596146 -4.36234546 11.60042821 -7 13 C-9 12 -9 12 -10 10 C-8.68 9.67 -7.36 9.34 -6 9 C-6 8.01 -6 7.02 -6 6 C-4.5 4.3125 -4.5 4.3125 -3 3 C-5.31 3 -7.62 3 -10 3 C-6.1865669 0.45771127 -4.5252563 -0.11908569 0 0 Z " fill="#C9A2C6" transform="translate(58,28)"/>
<path d="M0 0 C0.99 0 1.98 0 3 0 C3 0.99 3 1.98 3 3 C5.31 3 7.62 3 10 3 C10.33 2.34 10.66 1.68 11 1 C11.99 1.33 12.98 1.66 14 2 C13.67 3.65 13.34 5.3 13 7 C12.4225 6.649375 11.845 6.29875 11.25 5.9375 C8.56480906 4.81867044 7.72068232 5.2348081 5 6 C2.75 5.5625 2.75 5.5625 1 5 C0.67 6.32 0.34 7.64 0 9 C0 8.34 0 7.68 0 7 C-0.66 7 -1.32 7 -2 7 C-2.33 7.66 -2.66 8.32 -3 9 C-3.66 8.34 -4.32 7.68 -5 7 C-4.34 6.01 -3.68 5.02 -3 4 C-2.34 4 -1.68 4 -1 4 C-0.67 2.68 -0.34 1.36 0 0 Z " fill="#07070A" transform="translate(38,0)"/>
<path d="M0 0 C5.4389165 -0.21755666 9.87080814 -0.10428384 15 2 C12.48169253 5.12270126 11.2738451 5.94523098 7.25 6.75 C5.64125 6.87375 5.64125 6.87375 4 7 C4 5.35 4 3.7 4 2 C2.68 1.67 1.36 1.34 0 1 C0 0.67 0 0.34 0 0 Z " fill="#3E2126" transform="translate(57,47)"/>
<path d="M0 0 C0 4 0 4 -1.64453125 5.73828125 C-2.71767578 6.51751953 -2.71767578 6.51751953 -3.8125 7.3125 C-4.87404297 8.11107422 -4.87404297 8.11107422 -5.95703125 8.92578125 C-6.63121094 9.28027344 -7.30539063 9.63476562 -8 10 C-8.99 9.67 -9.98 9.34 -11 9 C-8.53915282 2.67210725 -7.16204338 -0.38713748 0 0 Z " fill="#73635C" transform="translate(88,63)"/>
<path d="M0 0 C0.33 1.98 0.66 3.96 1 6 C0.34 6 -0.32 6 -1 6 C-0.67 6.66 -0.34 7.32 0 8 C0.039992 9.99960012 0.04346799 12.00047242 0 14 C-1.32 14 -2.64 14 -4 14 C-4 9.71 -4 5.42 -4 1 C-2 0 -2 0 0 0 Z " fill="#151419" transform="translate(76,82)"/>
<path d="M0 0 C4.55384615 -0.36923077 4.55384615 -0.36923077 6.8125 1.5 C7.204375 1.995 7.59625 2.49 8 3 C5.69 3 3.38 3 1 3 C1.33 5.64 1.66 8.28 2 11 C-0.31 11 -2.62 11 -5 11 C-5.33 9.68 -5.66 8.36 -6 7 C-4.02 6.67 -2.04 6.34 0 6 C0 4.02 0 2.04 0 0 Z " fill="#E0BEE0" transform="translate(46,44)"/>
<path d="M0 0 C1.98 0.66 3.96 1.32 6 2 C6.33 3.65 6.66 5.3 7 7 C1.25 12 1.25 12 -1 12 C-0.814375 10.906875 -0.62875 9.81375 -0.4375 8.6875 C0.2578068 5.06375867 0.2578068 5.06375867 -1 2 C-0.67 1.34 -0.34 0.68 0 0 Z " fill="#D5B4D8" transform="translate(40,57)"/>
<path d="M0 0 C0 0.66 0 1.32 0 2 C0.66 2.66 1.32 3.32 2 4 C-0.31 4 -2.62 4 -5 4 C-5 4.99 -5 5.98 -5 7 C-5.99 7 -6.98 7 -8 7 C-8 7.66 -8 8.32 -8 9 C-8.66 9 -9.32 9 -10 9 C-10 8.34 -10 7.68 -10 7 C-12.64 6.67 -15.28 6.34 -18 6 C-17.67 5.34 -17.34 4.68 -17 4 C-14.03 4.495 -14.03 4.495 -11 5 C-11 4.34 -11 3.68 -11 3 C-7.4536218 1.02978989 -4.07768576 0 0 0 Z " fill="#AB799B" transform="translate(65,37)"/>
<path d="M0 0 C1.08667969 0.11988281 2.17335938 0.23976562 3.29296875 0.36328125 C4.12441406 0.47027344 4.95585938 0.57726563 5.8125 0.6875 C5.8125 1.3475 5.8125 2.0075 5.8125 2.6875 C6.8025 3.0175 7.7925 3.3475 8.8125 3.6875 C7.19228735 5.30771265 5.41882066 4.85814712 3.1875 4.875 C-1.32030187 4.84261637 -4.94442149 4.16335339 -9.1875 2.6875 C-6.51245717 -0.96369882 -4.27917944 -0.5061395 0 0 Z " fill="#70555B" transform="translate(71.1875,44.3125)"/>
<path d="M0 0 C0.99 0.99 1.98 1.98 3 3 C2.67 3.66 2.34 4.32 2 5 C1.01 5 0.02 5 -1 5 C-1 5.66 -1 6.32 -1 7 C-1.639375 7.28875 -2.27875 7.5775 -2.9375 7.875 C-5.15206079 8.82823451 -5.15206079 8.82823451 -6 11 C-7.98 11 -9.96 11 -12 11 C-12 10.34 -12 9.68 -12 9 C-10.02053408 7.63636792 -8.0180755 6.30581356 -6 5 C-5.1646875 4.13375 -5.1646875 4.13375 -4.3125 3.25 C-3 2 -3 2 0 2 C0 1.34 0 0.68 0 0 Z " fill="#28211E" transform="translate(80,17)"/>
<path d="M0 0 C0.66 0 1.32 0 2 0 C1.83984375 1.796875 1.83984375 1.796875 1 4 C-1.43359375 5.703125 -1.43359375 5.703125 -4.4375 7.25 C-5.42621094 7.77078125 -6.41492187 8.2915625 -7.43359375 8.828125 C-10 10 -10 10 -12 10 C-10.5039904 6.19197555 -8.33936849 4.30575443 -5 2 C-2.75 1.3125 -2.75 1.3125 -1 1 C-0.67 0.67 -0.34 0.34 0 0 Z " fill="#CCA7C9" transform="translate(59,60)"/>
<path d="M0 0 C-0.66 0.66 -1.32 1.32 -2 2 C-2.40047444 4.32275177 -2.7397104 6.65739357 -3 9 C-6 10 -6 10 -9 9 C-8.67 8.01 -8.34 7.02 -8 6 C-8.99 5.67 -9.98 5.34 -11 5 C-10.67 4.01 -10.34 3.02 -10 2 C-9.67 2.99 -9.34 3.98 -9 5 C-8.01 4.67 -7.02 4.34 -6 4 C-6.33 2.68 -6.66 1.36 -7 0 C-3.86650268 -1.04449911 -3.01031744 -0.93423645 0 0 Z " fill="#312E39" transform="translate(33,34)"/>
<path d="M0 0 C2.33301986 0.03824623 4.66711508 0.04574284 7 0 C7 0.66 7 1.32 7 2 C2.40767665 3.82855428 -0.97358268 4.12514462 -5.875 3.625 C-7.60363281 3.45871094 -7.60363281 3.45871094 -9.3671875 3.2890625 C-10.23601563 3.19367188 -11.10484375 3.09828125 -12 3 C-8.15797796 -0.84202204 -5.11254421 -1.21727243 0 0 Z " fill="#95748D" transform="translate(69,79)"/>
<path d="M0 0 C0.721875 0.185625 1.44375 0.37125 2.1875 0.5625 C5.12826973 1.01995307 7.14103058 0.73516357 10 0 C10.33 1.98 10.66 3.96 11 6 C8 7 8 7 4.9375 5.8125 C2.0126988 4.00783543 1.09351553 3.17119503 0 0 Z " fill="#683C50" transform="translate(34,70)"/>
<path d="M0 0 C2.99693138 0.99897713 4.02709413 1.65130253 6 4 C6 4.66 6 5.32 6 6 C5.34 6 4.68 6 4 6 C4 6.66 4 7.32 4 8 C2.68 8 1.36 8 0 8 C0.33 8.99 0.66 9.98 1 11 C-0.65 11.33 -2.3 11.66 -4 12 C-4 11.01 -4 10.02 -4 9 C-3.34 9 -2.68 9 -2 9 C-1.34 6.03 -0.68 3.06 0 0 Z " fill="#1F1E23" transform="translate(12,19)"/>
<path d="M0 0 C0.66 0 1.32 0 2 0 C2.33 1.65 2.66 3.3 3 5 C1.68 5.33 0.36 5.66 -1 6 C-1 6.99 -1 7.98 -1 9 C-0.34 9 0.32 9 1 9 C1 8.34 1 7.68 1 7 C3.31 7.66 5.62 8.32 8 9 C5.66785852 10.20628008 3.50357861 11.1654738 1 12 C-1.6875 10.5625 -1.6875 10.5625 -4 9 C-3.67 7.68 -3.34 6.36 -3 5 C-2.34 5 -1.68 5 -1 5 C-0.67 3.35 -0.34 1.7 0 0 Z " fill="#37363D" transform="translate(36,7)"/>
<path d="M0 0 C-0.33 2.31 -0.66 4.62 -1 7 C-6.445 8.485 -6.445 8.485 -12 10 C-12.33 9.34 -12.66 8.68 -13 8 C-11.90241493 7.15801693 -10.79664683 6.32669329 -9.6875 5.5 C-9.07261719 5.0359375 -8.45773438 4.571875 -7.82421875 4.09375 C-6 3 -6 3 -3 3 C-3 2.34 -3 1.68 -3 1 C-1 0 -1 0 0 0 Z " fill="#66514C" transform="translate(84,23)"/>
<path d="M0 0 C1.98 0 3.96 0 6 0 C6.66 1.65 7.32 3.3 8 5 C2.125 9 2.125 9 1 9 C0.67 6.03 0.34 3.06 0 0 Z " fill="#48373E" transform="translate(63,14)"/>
<path d="M0 0 C1.2065625 0.0309375 1.2065625 0.0309375 2.4375 0.0625 C2.4375 2.3725 2.4375 4.6825 2.4375 7.0625 C3.7575 7.3925 5.0775 7.7225 6.4375 8.0625 C4.38516315 10.3102975 3.43082739 11.0647242 0.4375 12.0625 C0.4375 9.0925 0.4375 6.1225 0.4375 3.0625 C-0.8825 4.0525 -2.2025 5.0425 -3.5625 6.0625 C-3.605221 4.39638095 -3.60313832 2.72867115 -3.5625 1.0625 C-2.5625 0.0625 -2.5625 0.0625 0 0 Z " fill="#D2AACC" transform="translate(34.5625,36.9375)"/>
<path d="M0 0 C1.98 0.495 1.98 0.495 4 1 C4.33 2.65 4.66 4.3 5 6 C5.99 5.67 6.98 5.34 8 5 C7.67 6.32 7.34 7.64 7 9 C5.35 9.33 3.7 9.66 2 10 C2 8.35 2 6.7 2 5 C1.67 6.32 1.34 7.64 1 9 C0.34 9 -0.32 9 -1 9 C-1 7.35 -1 5.7 -1 4 C-0.34 4 0.32 4 1 4 C0.67 2.68 0.34 1.36 0 0 Z " fill="#0F0E12" transform="translate(22,0)"/>
<path d="M0 0 C0.66 0 1.32 0 2 0 C2.33 0.99 2.66 1.98 3 3 C2.67 3.66 2.34 4.32 2 5 C3.32 5.33 4.64 5.66 6 6 C1.05738183 7.15327757 -3.95661339 7.53972977 -9 8 C-8.67 7.34 -8.34 6.68 -8 6 C-7.01 6 -6.02 6 -5 6 C-5 5.34 -5 4.68 -5 4 C-4.360625 3.71125 -3.72125 3.4225 -3.0625 3.125 C-0.84793921 2.17176549 -0.84793921 2.17176549 0 0 Z " fill="#594848" transform="translate(73,58)"/>
<path d="M0 0 C0.33 0 0.66 0 1 0 C1 2.31 1 4.62 1 7 C3.31 7 5.62 7 8 7 C6.63016497 10.16115776 6.0109362 10.9927092 3 13 C2.67 11.68 2.34 10.36 2 9 C-1.11785113 9.64644661 -1.11785113 9.64644661 -2 12 C-2.33 10.35 -2.66 8.7 -3 7 C-2.34 6.67 -1.68 6.34 -1 6 C-0.34227572 2.97065509 -0.34227572 2.97065509 0 0 Z " fill="#BC93B6" transform="translate(49,49)"/>
<path d="M0 0 C3 1 3 1 4 3 C4.12005453 4.49649362 4.17531451 5.99874793 4.1875 7.5 C4.20167969 8.2940625 4.21585938 9.088125 4.23046875 9.90625 C4 12 4 12 2 14 C0.875 9.25 0.875 9.25 2 7 C1.01 6.67 0.02 6.34 -1 6 C-2.1875 3.9375 -2.1875 3.9375 -3 2 C-2.01 1.34 -1.02 0.68 0 0 Z " fill="#5D5C65" transform="translate(16,16)"/>
<path d="M0 0 C0.99 0 1.98 0 3 0 C3.09744538 4.7748234 3.00953651 9.31942165 2 14 C1.01 14.66 0.02 15.32 -1 16 C-1.02685095 13.52076199 -1.04676547 11.0418116 -1.0625 8.5625 C-1.07506836 7.50192383 -1.07506836 7.50192383 -1.08789062 6.41992188 C-1.09653588 4.61306441 -1.05220011 2.80612397 -1 1 C-0.67 0.67 -0.34 0.34 0 0 Z " fill="#020204" transform="translate(1,9)"/>
<path d="M0 0 C1.41623216 -0.05447047 2.83308191 -0.09300508 4.25 -0.125 C5.03890625 -0.14820312 5.8278125 -0.17140625 6.640625 -0.1953125 C9.20731941 0.0171622 10.7916067 0.71345895 13 2 C12.67 2.66 12.34 3.32 12 4 C10.35 3.67 8.7 3.34 7 3 C7 3.99 7 4.98 7 6 C6.01 6 5.02 6 4 6 C3.67 5.34 3.34 4.68 3 4 C2.01 3.67 1.02 3.34 0 3 C0 2.01 0 1.02 0 0 Z " fill="#2A292F" transform="translate(5,1)"/>
<path d="M0 0 C0 0.66 0 1.32 0 2 C-0.66 2 -1.32 2 -2 2 C-1.67 3.65 -1.34 5.3 -1 7 C-1.66 7 -2.32 7 -3 7 C-3 7.66 -3 8.32 -3 9 C-3.66 9 -4.32 9 -5 9 C-5.66 10.32 -6.32 11.64 -7 13 C-7 10 -7 7 -7 4 C-2.77777778 0 -2.77777778 0 0 0 Z " fill="#7C787E" transform="translate(77,9)"/>
<path d="M0 0 C0 0.66 0 1.32 0 2 C-0.66 2 -1.32 2 -2 2 C-2 2.66 -2 3.32 -2 4 C-2.99 4.33 -3.98 4.66 -5 5 C-5.33 5.66 -5.66 6.32 -6 7 C-8.6852464 8.37891032 -10.29776859 9.11387536 -13.3125 8.625 C-13.869375 8.41875 -14.42625 8.2125 -15 8 C-11.25 5 -11.25 5 -9 5 C-9 4.34 -9 3.68 -9 3 C-2.25 0 -2.25 0 0 0 Z " fill="#D2B1D1" transform="translate(68,73)"/>
<path d="M0 0 C0 0.66 0 1.32 0 2 C-4.35294118 6 -4.35294118 6 -8 6 C-8 6.66 -8 7.32 -8 8 C-9.98 8.33 -11.96 8.66 -14 9 C-12.68786941 5.06360824 -11.17198478 4.71346403 -7.5625 2.8125 C-6.07943359 2.01779297 -6.07943359 2.01779297 -4.56640625 1.20703125 C-2 0 -2 0 0 0 Z " fill="#5A3643" transform="translate(62,65)"/>
<path d="M0 0 C0.33 0.99 0.66 1.98 1 3 C-4.78357065 5.01167675 -9.90218999 5.22084624 -16 5 C-13.45212092 2.45212092 -11.48592567 2.20458327 -8 1.375 C-6.39125 0.98441406 -6.39125 0.98441406 -4.75 0.5859375 C-2 0 -2 0 0 0 Z " fill="#503B38" transform="translate(82,40)"/>
<path d="M0 0 C0.33 0.66 0.66 1.32 1 2 C-1.475 3.485 -1.475 3.485 -4 5 C-3.67 5.66 -3.34 6.32 -3 7 C-7.75 10 -7.75 10 -10 10 C-9.34938905 8.32700041 -8.67966676 6.66140763 -8 5 C-7.7525 4.2575 -7.505 3.515 -7.25 2.75 C-6 1 -6 1 -2.875 0.25 C-1.92625 0.1675 -0.9775 0.085 0 0 Z " fill="#B68FB0" transform="translate(58,76)"/>
<path d="M0 0 C2.97 0.495 2.97 0.495 6 1 C5.67 2.65 5.34 4.3 5 6 C3.68 6 2.36 6 1 6 C1 6.66 1 7.32 1 8 C0.34 8 -0.32 8 -1 8 C-0.67 6.68 -0.34 5.36 0 4 C-0.66 4 -1.32 4 -2 4 C-1.34 2.68 -0.68 1.36 0 0 Z " fill="#DCBEDF" transform="translate(39,22)"/>
<path d="M0 0 C-0.99 0.495 -0.99 0.495 -2 1 C-1.67 3.31 -1.34 5.62 -1 8 C-0.01 8 0.98 8 2 8 C1.67 8.99 1.34 9.98 1 11 C0.34 11 -0.32 11 -1 11 C-3.29013653 7.5647952 -3.17842973 6.014669 -3 2 C-3.66 2 -4.32 2 -5 2 C-5 2.66 -5 3.32 -5 4 C-5.66 4 -6.32 4 -7 4 C-7.33 2.68 -7.66 1.36 -8 0 C-4.94736336 -0.98120464 -3.05263664 -0.98120464 0 0 Z " fill="#47464D" transform="translate(13,43)"/>
<path d="M0 0 C5.94 1.485 5.94 1.485 12 3 C12 3.66 12 4.32 12 5 C8.04 5 4.08 5 0 5 C0 3.35 0 1.7 0 0 Z " fill="#717077" transform="translate(56,123)"/>
<path d="M0 0 C-0.99 1.485 -0.99 1.485 -2 3 C-3.32 3 -4.64 3 -6 3 C-6.66 4.65 -7.32 6.3 -8 8 C-11 4.25 -11 4.25 -11 2 C-7.17010894 0.19769832 -4.21878192 -0.19622241 0 0 Z " fill="#CFAFD5" transform="translate(58,74)"/>
<path d="M0 0 C0.66975771 2.08369065 1 3.87002453 1 6.0625 C-0.70526517 9.36645126 -3.61692588 9.89175158 -7 11 C-7.99 10.67 -8.98 10.34 -10 10 C-6.375 7 -6.375 7 -3 7 C-2.814375 5.824375 -2.814375 5.824375 -2.625 4.625 C-2 2 -2 2 0 0 Z " fill="#713D56" transform="translate(60,18)"/>
<path d="M0 0 C0.99 1.485 0.99 1.485 2 3 C2.66 2.01 3.32 1.02 4 0 C4.04254356 1.99954746 4.04080783 4.00041636 4 6 C3.67 6.33 3.34 6.66 3 7 C2.92794489 8.68608966 2.91613932 10.37500659 2.9375 12.0625 C2.94652344 12.98160156 2.95554688 13.90070313 2.96484375 14.84765625 C2.97644531 15.55792969 2.98804688 16.26820312 3 17 C0.41451372 14.41451372 0.02358153 12.70461615 -0.09765625 9.08203125 C-0.08605469 8.00308594 -0.07445312 6.92414063 -0.0625 5.8125 C-0.05347656 4.72582031 -0.04445312 3.63914062 -0.03515625 2.51953125 C-0.02355469 1.68808594 -0.01195312 0.85664062 0 0 Z " fill="#504F56" transform="translate(49,99)"/>
<path d="M0 0 C1.48117801 0.28127421 2.95993249 0.57533732 4.4375 0.875 C5.67306641 1.11863281 5.67306641 1.11863281 6.93359375 1.3671875 C7.61550781 1.57601563 8.29742187 1.78484375 9 2 C9.33 2.66 9.66 3.32 10 4 C7.69 4 5.38 4 3 4 C2.67 5.65 2.34 7.3 2 9 C1.01 9.33 0.02 9.66 -1 10 C-1 10.66 -1 11.32 -1 12 C-1.66 12 -2.32 12 -3 12 C-3 11.01 -3 10.02 -3 9 C-1.68 8.67 -0.36 8.34 1 8 C0.67 5.36 0.34 2.72 0 0 Z " fill="#1E1E23" transform="translate(38,4)"/>
<path d="M0 0 C0.33 0 0.66 0 1 0 C1.22262606 2.08185451 1.42757926 4.16560426 1.625 6.25 C1.74101563 7.41015625 1.85703125 8.5703125 1.9765625 9.765625 C1.99955595 12.93872091 1.69705154 14.38317244 0 17 C-0.66 16.67 -1.32 16.34 -2 16 C-2 14.02 -2 12.04 -2 10 C-1.34 10 -0.68 10 0 10 C0 6.7 0 3.4 0 0 Z " fill="#54545A" transform="translate(64,93)"/>
<path d="M0 0 C0.66 0 1.32 0 2 0 C3.125 5.75 3.125 5.75 2 8 C0.35 8 -1.3 8 -3 8 C-3.33 5.69 -3.66 3.38 -4 1 C-3.01 2.32 -2.02 3.64 -1 5 C-0.67 3.35 -0.34 1.7 0 0 Z " fill="#BC99B7" transform="translate(46,78)"/>
<path d="M0 0 C0.99 0.33 1.98 0.66 3 1 C2.34 1.66 1.68 2.32 1 3 C0.53993654 5.20250992 0.53993654 5.20250992 0.375 7.625 C0.30023438 8.44226562 0.22546875 9.25953125 0.1484375 10.1015625 C0.09945312 10.72804688 0.05046875 11.35453125 0 12 C-0.99 11.67 -1.98 11.34 -3 11 C-3 10.34 -3 9.68 -3 9 C-2.34 9 -1.68 9 -1 9 C-1 7.68 -1 6.36 -1 5 C-2.65 5 -4.3 5 -6 5 C-5.67 3.68 -5.34 2.36 -5 1 C-3.68 1 -2.36 1 -1 1 C-0.67 0.67 -0.34 0.34 0 0 Z " fill="#424049" transform="translate(33,19)"/>
<path d="M0 0 C0.33 0 0.66 0 1 0 C1.144375 1.093125 1.28875 2.18625 1.4375 3.3125 C1.88288104 6.93122987 1.88288104 6.93122987 3 10 C1.35 10.66 -0.3 11.32 -2 12 C-2 11.34 -2 10.68 -2 10 C-2.66 9.67 -3.32 9.34 -4 9 C-3.67 8.34 -3.34 7.68 -3 7 C-2.34 7 -1.68 7 -1 7 C-1.33 5.35 -1.66 3.7 -2 2 C-1.34 2 -0.68 2 0 2 C0 1.34 0 0.68 0 0 Z " fill="#504C4C" transform="translate(77,9)"/>
<path d="M0 0 C3.71599191 -0.20086443 4.77208445 -0.1519437 8 2 C8 2.66 8 3.32 8 4 C9.423125 3.2265625 9.423125 3.2265625 10.875 2.4375 C11.90625 1.963125 12.9375 1.48875 14 1 C14.66 1.33 15.32 1.66 16 2 C13.65408148 4.7710688 11.85223799 5.52059284 8.3125 6.1875 C7.50425781 6.34605469 6.69601563 6.50460938 5.86328125 6.66796875 C5.24839844 6.77753906 4.63351563 6.88710938 4 7 C4 5.68 4 4.36 4 3 C2.07977297 1.22590192 2.07977297 1.22590192 0 0 Z " fill="#A49DAF" transform="translate(46,15)"/>
<path d="M0 0 C1.32 0 2.64 0 4 0 C4 4 4 4 2.5 5.75 C2.005 6.1625 1.51 6.575 1 7 C1.99 7 2.98 7 4 7 C4 7.66 4 8.32 4 9 C1.03 8.505 1.03 8.505 -2 8 C-1.125 1.125 -1.125 1.125 0 0 Z " fill="#040407" transform="translate(41,7)"/>
<path d="M0 0 C0.99 0.33 1.98 0.66 3 1 C2.61402985 3.79828356 2.19863427 4.8205884 0.0625 6.75 C-2 8 -2 8 -4 8 C-3.6875 5.125 -3.6875 5.125 -3 2 C-2.01 1.34 -1.02 0.68 0 0 Z " fill="#D9B6DA" transform="translate(39,50)"/>
<path d="M0 0 C1.32 0 2.64 0 4 0 C3.67 1.32 3.34 2.64 3 4 C3.66 4 4.32 4 5 4 C5 4.66 5 5.32 5 6 C4.34 6 3.68 6 3 6 C3 6.99 3 7.98 3 9 C2.01 9.33 1.02 9.66 0 10 C0 6.7 0 3.4 0 0 Z " fill="#302F34" transform="translate(0,0)"/>
<path d="M0 0 C0.99 0 1.98 0 3 0 C3.33 3.96 3.66 7.92 4 12 C3.34 11.67 2.68 11.34 2 11 C2 10.34 2 9.68 2 9 C1.34 9 0.68 9 0 9 C0 6.03 0 3.06 0 0 Z " fill="#1C1B22" transform="translate(65,83)"/>
<path d="M0 0 C0 0.99 0 1.98 0 3 C-0.66 3 -1.32 3 -2 3 C-2.33 3.99 -2.66 4.98 -3 6 C-3.33 5.34 -3.66 4.68 -4 4 C-3.67 3.34 -3.34 2.68 -3 2 C-4.423125 2.99 -4.423125 2.99 -5.875 4 C-9 6 -9 6 -11 6 C-11 4.68 -11 3.36 -11 2 C-7.12315913 0.80712589 -4.08378077 0 0 0 Z " fill="#8C6581" transform="translate(72,52)"/>
<path d="M0 0 C0.99 0.66 1.98 1.32 3 2 C3.1875 4.625 3.1875 4.625 3 7 C1.88625 6.79375 0.7725 6.5875 -0.375 6.375 C-1.57125 6.25125 -2.7675 6.1275 -4 6 C-4.66 6.66 -5.32 7.32 -6 8 C-6.99 8 -7.98 8 -9 8 C-9 7.34 -9 6.68 -9 6 C-5.77208445 3.8480563 -4.71599191 3.79913557 -1 4 C-0.67 2.68 -0.34 1.36 0 0 Z " fill="#3B2824" transform="translate(84,26)"/>
<path d="M0 0 C0.66 0 1.32 0 2 0 C1.67 3.63 1.34 7.26 1 11 C0.67 10.34 0.34 9.68 0 9 C-0.66 9 -1.32 9 -2 9 C-2.125 5.625 -2.125 5.625 -2 2 C-1.34 1.34 -0.68 0.68 0 0 Z " fill="#27272E" transform="translate(53,83)"/>
<path d="M0 0 C0.56203125 0.30679687 1.1240625 0.61359375 1.703125 0.9296875 C4.06346934 2.02957585 6.20465562 2.60095851 8.75 3.125 C9.54921875 3.29257812 10.3484375 3.46015625 11.171875 3.6328125 C11.77515625 3.75398438 12.3784375 3.87515625 13 4 C13 4.33 13 4.66 13 5 C9.04 5 5.08 5 1 5 C0.67 3.35 0.34 1.7 0 0 Z " fill="#C199BB" transform="translate(33,28)"/>
<path d="M0 0 C5.75 0.75 5.75 0.75 8 3 C7.01 4.32 6.02 5.64 5 7 C3.35 6.67 1.7 6.34 0 6 C1 4 1 4 3 1 C2.01 0.67 1.02 0.34 0 0 Z " fill="#BFB0C9" transform="translate(44,16)"/>
<path d="M0 0 C0.66 0 1.32 0 2 0 C5 5.75 5 5.75 5 8 C4.2575 8.144375 3.515 8.28875 2.75 8.4375 C0.47972261 8.90187492 -1.75759479 9.41863569 -4 10 C-3.34 9.67 -2.68 9.34 -2 9 C-2 8.34 -2 7.68 -2 7 C-1.34 7 -0.68 7 0 7 C0 4.69 0 2.38 0 0 Z " fill="#53525A" transform="translate(29,2)"/>
<path d="M0 0 C0.33 0 0.66 0 1 0 C1.33 1.65 1.66 3.3 2 5 C2.99 4.67 3.98 4.34 5 4 C4.34 5.65 3.68 7.3 3 9 C1.35 8.67 -0.3 8.34 -2 8 C-1.125 1.125 -1.125 1.125 0 0 Z " fill="#37373E" transform="translate(65,115)"/>
<path d="M0 0 C0.99 0 1.98 0 3 0 C2.67 3.3 2.34 6.6 2 10 C1.34 10 0.68 10 0 10 C-2 7 -2 7 -2 3 C-1.01 3 -0.02 3 1 3 C0.67 2.01 0.34 1.02 0 0 Z " fill="#120E14" transform="translate(30,48)"/>
<path d="M0 0 C0 0.99 0 1.98 0 3 C0.66 3 1.32 3 2 3 C1.67 3.66 1.34 4.32 1 5 C0.34 5 -0.32 5 -1 5 C-1 5.66 -1 6.32 -1 7 C-2.32 7.33 -3.64 7.66 -5 8 C-4.79375 7.21625 -4.5875 6.4325 -4.375 5.625 C-4.25125 4.75875 -4.1275 3.8925 -4 3 C-4.66 2.34 -5.32 1.68 -6 1 C-3.92446352 0.4465236 -2.15634036 0 0 0 Z " fill="#2F2732" transform="translate(32,44)"/>
<path d="M0 0 C0.66 0 1.32 0 2 0 C2 0.66 2 1.32 2 2 C1.01 2.495 1.01 2.495 0 3 C-0.65555119 5.52733235 -0.65555119 5.52733235 -1 8 C-2.32 7.67 -3.64 7.34 -5 7 C-5 6.34 -5 5.68 -5 5 C-5.66 4.67 -6.32 4.34 -7 4 C-7 3.34 -7 2.68 -7 2 C-6.21625 2.04125 -5.4325 2.0825 -4.625 2.125 C-1.83883881 2.28728734 -1.83883881 2.28728734 0 0 Z " fill="#5E4F47" transform="translate(84,43)"/>
<path d="M0 0 C0.33 0 0.66 0 1 0 C1.33 1.65 1.66 3.3 2 5 C2.99 4.67 3.98 4.34 5 4 C5 5.65 5 7.3 5 9 C4.01 9.495 4.01 9.495 3 10 C3 9.34 3 8.68 3 8 C0.69 8.33 -1.62 8.66 -4 9 C-3.34 8.34 -2.68 7.68 -2 7 C-1.67 7 -1.34 7 -1 7 C-0.67 4.69 -0.34 2.38 0 0 Z " fill="#9C7089" transform="translate(30,36)"/>
<path d="M0 0 C0.33 0.99 0.66 1.98 1 3 C0.01 3.66 -0.98 4.32 -2 5 C-3.19232613 7.05003955 -3.19232613 7.05003955 -4 9 C-4 8.01 -4 7.02 -4 6 C-5.32 6.33 -6.64 6.66 -8 7 C-6.86500606 3.70851757 -6.00716624 3.0040131 -2.875 1.25 C-1.92625 0.8375 -0.9775 0.425 0 0 Z " fill="#996E90" transform="translate(48,64)"/>
<path d="M0 0 C0.33 0.99 0.66 1.98 1 3 C-3.0188515 4.81242323 -6.61110675 6.33501617 -11 7 C-10 4 -10 4 -7.71484375 2.83203125 C-6.79832031 2.49558594 -5.88179688 2.15914062 -4.9375 1.8125 C-4.01839844 1.46832031 -3.09929687 1.12414063 -2.15234375 0.76953125 C-1.44207031 0.51558594 -0.73179688 0.26164062 0 0 Z " fill="#45342E" transform="translate(86,56)"/>
<path d="M0 0 C1.98 0 3.96 0 6 0 C6 1.98 6 3.96 6 6 C4.125 5.8125 4.125 5.8125 2 5 C0.75 2.4375 0.75 2.4375 0 0 Z " fill="#C59EBF" transform="translate(53,49)"/>
<path d="M0 0 C2.475 0.99 2.475 0.99 5 2 C4.67 2.66 4.34 3.32 4 4 C3.34 4 2.68 4 2 4 C1.67 4.99 1.34 5.98 1 7 C0.67 6.34 0.34 5.68 0 5 C-0.99 5 -1.98 5 -3 5 C-2.67 4.01 -2.34 3.02 -2 2 C-1.34 2 -0.68 2 0 2 C0 1.34 0 0.68 0 0 Z " fill="#2B2B2F" transform="translate(45,9)"/>
<path d="M0 0 C0.185625 0.8353125 0.185625 0.8353125 0.375 1.6875 C1.05976855 4.22114364 1.99133763 6.57921032 3 9 C1.35 9 -0.3 9 -2 9 C-2.25 3.375 -2.25 3.375 0 0 Z " fill="#43424A" transform="translate(15,6)"/>
<path d="M0 0 C0.33 0.99 0.66 1.98 1 3 C1.99 3 2.98 3 4 3 C4.33 3.99 4.66 4.98 5 6 C2.69 6.66 0.38 7.32 -2 8 C-2 6.68 -2 5.36 -2 4 C-1.34 4 -0.68 4 0 4 C0 2.68 0 1.36 0 0 Z " fill="#43434B" transform="translate(55,102)"/>
<path d="M0 0 C-1.24176695 0.70226141 -2.49385599 1.38629109 -3.75 2.0625 C-4.79414062 2.63677734 -4.79414062 2.63677734 -5.859375 3.22265625 C-8.36140628 4.1312406 -9.5332355 3.88336837 -12 3 C-8.5571185 -1.16769866 -4.97775588 -1.39503986 0 0 Z " fill="#D9B6DA" transform="translate(50,40)"/>
<path d="M0 0 C1.65 0 3.3 0 5 0 C5 1.98 5 3.96 5 6 C4.01 6.33 3.02 6.66 2 7 C2 6.01 2 5.02 2 4 C1.34 4 0.68 4 0 4 C0 2.68 0 1.36 0 0 Z " fill="#63544C" transform="translate(80,31)"/>
<path d="M0 0 C0.33 0.99 0.66 1.98 1 3 C1.99 2.67 2.98 2.34 4 2 C3.88637738 3.4800841 3.75877092 4.95910074 3.625 6.4375 C3.52058594 7.67306641 3.52058594 7.67306641 3.4140625 8.93359375 C3.27742188 9.61550781 3.14078125 10.29742187 3 11 C2.01 11.495 2.01 11.495 1 12 C0.67 8.04 0.34 4.08 0 0 Z " fill="#404048" transform="translate(58,91)"/>
<path d="M0 0 C-0.875 4.875 -0.875 4.875 -2 6 C-3.66617115 6.04063832 -5.33388095 6.042721 -7 6 C-7 5.34 -7 4.68 -7 4 C-2.52941176 0 -2.52941176 0 0 0 Z " fill="#38231E" transform="translate(87,68)"/>
<path d="M0 0 C0.66 0.66 1.32 1.32 2 2 C0.35 2 -1.3 2 -3 2 C-2.01 3.485 -2.01 3.485 -1 5 C-1 5.99 -1 6.98 -1 8 C-2.32 7.67 -3.64 7.34 -5 7 C-5 5.35 -5 3.7 -5 2 C-3.35 1.34 -1.7 0.68 0 0 Z " fill="#885973" transform="translate(56,47)"/>
<path d="M0 0 C1.27875 -0.061875 2.5575 -0.12375 3.875 -0.1875 C4.95394531 -0.23970703 4.95394531 -0.23970703 6.0546875 -0.29296875 C6.69664063 -0.19628906 7.33859375 -0.09960938 8 0 C8.66 0.99 9.32 1.98 10 3 C3.375 3.125 3.375 3.125 0 2 C0 1.34 0 0.68 0 0 Z " fill="#816070" transform="translate(66,46)"/>
<path d="M0 0 C7.50769231 -0.36923077 7.50769231 -0.36923077 10 1.5 C10.495 2.2425 10.495 2.2425 11 3 C10.01 3.66 9.02 4.32 8 5 C7.01 4.67 6.02 4.34 5 4 C5 3.01 5 2.02 5 1 C3.35 1 1.7 1 0 1 C0 0.67 0 0.34 0 0 Z " fill="#724657" transform="translate(64,34)"/>
<path d="M0 0 C0.598125 0.185625 1.19625 0.37125 1.8125 0.5625 C4.16408762 1.22093687 4.16408762 1.22093687 7 0 C6.67 2.31 6.34 4.62 6 7 C3.00675737 5.9024777 2.15389099 5.32317108 0.75 2.375 C0.5025 1.59125 0.255 0.8075 0 0 Z " fill="#3E3B43" transform="translate(21,26)"/>
<path d="M0 0 C0.33 0 0.66 0 1 0 C1.33 3.3 1.66 6.6 2 10 C1.01 9.67 0.02 9.34 -1 9 C-1 7.68 -1 6.36 -1 5 C-1.66 4.67 -2.32 4.34 -3 4 C-2.34 4 -1.68 4 -1 4 C-0.67 2.68 -0.34 1.36 0 0 Z " fill="#46454B" transform="translate(70,99)"/>
<path d="M0 0 C-3.82517513 2.39073445 -7.59665524 2.55966552 -12 3 C-7.8927971 -1.29389394 -5.8727074 -0.97878457 0 0 Z " fill="#664B53" transform="translate(77,77)"/>
<path d="M0 0 C0.433125 0.639375 0.86625 1.27875 1.3125 1.9375 C2.91239177 4.26746003 2.91239177 4.26746003 6 5 C5.67 6.32 5.34 7.64 5 9 C3.0625 8.4375 3.0625 8.4375 1 7 C0.25 3.375 0.25 3.375 0 0 Z " fill="#B28EB1" transform="translate(32,62)"/>
<path d="M0 0 C1.65 0 3.3 0 5 0 C5 1.65 5 3.3 5 5 C3.35 5 1.7 5 0 5 C0 3.35 0 1.7 0 0 Z " fill="#5A3C44" transform="translate(61,49)"/>
<path d="M0 0 C-0.66 0.66 -1.32 1.32 -2 2 C-2.64767793 4.57061311 -2.64767793 4.57061311 -3 7 C-3.66 6.67 -4.32 6.34 -5 6 C-4.67 5.34 -4.34 4.68 -4 4 C-4.66 4 -5.32 4 -6 4 C-6.33 2.68 -6.66 1.36 -7 0 C-3.86650268 -1.04449911 -3.01031744 -0.93423645 0 0 Z " fill="#4A4651" transform="translate(33,34)"/>
<path d="M0 0 C1.32 0.33 2.64 0.66 4 1 C4 3.31 4 5.62 4 8 C2.68 7.34 1.36 6.68 0 6 C0 4.02 0 2.04 0 0 Z " fill="#CBACCC" transform="translate(33,22)"/>
<path d="M0 0 C1.65 0.33 3.3 0.66 5 1 C3.35 2.65 1.7 4.3 0 6 C-2 5 -2 5 -3 2 C-2.34 2 -1.68 2 -1 2 C-0.67 1.34 -0.34 0.68 0 0 Z " fill="#35343A" transform="translate(65,107)"/>
<path d="M0 0 C0.33 0 0.66 0 1 0 C1 2.97 1 5.94 1 9 C-0.32 9.33 -1.64 9.66 -3 10 C-3.66 10.66 -4.32 11.32 -5 12 C-4.67 10.68 -4.34 9.36 -4 8 C-3.34 8 -2.68 8 -2 8 C-1.10869587 5.3260876 -0.52268466 2.76276177 0 0 Z " fill="#404047" transform="translate(54,87)"/>
<path d="M0 0 C2.97 0.495 2.97 0.495 6 1 C6 1.99 6 2.98 6 4 C6.66 4.33 7.32 4.66 8 5 C3.48279689 5.36625971 3.48279689 5.36625971 1.1875 3.625 C0 2 0 2 0 0 Z " fill="#866180" transform="translate(34,70)"/>
<path d="M0 0 C0.99 0 1.98 0 3 0 C3 0.99 3 1.98 3 3 C1.35 3.33 -0.3 3.66 -2 4 C-2.33 5.98 -2.66 7.96 -3 10 C-3.33 10 -3.66 10 -4 10 C-4.33 7.36 -4.66 4.72 -5 2 C-3.35 1.67 -1.7 1.34 0 1 C0 0.67 0 0.34 0 0 Z " fill="#CEA6C9" transform="translate(52,45)"/>
<path d="M0 0 C0 0.66 0 1.32 0 2 C0.66 2.66 1.32 3.32 2 4 C-5.42857143 4.28571429 -5.42857143 4.28571429 -9 2 C-2.25 0 -2.25 0 0 0 Z " fill="#9E6E8F" transform="translate(65,37)"/>
<path d="M0 0 C1.2065625 0.0309375 1.2065625 0.0309375 2.4375 0.0625 C2.1075 1.3825 1.7775 2.7025 1.4375 4.0625 C0.4475 4.0625 -0.5425 4.0625 -1.5625 4.0625 C-2.2225 4.7225 -2.8825 5.3825 -3.5625 6.0625 C-3.605221 4.39638095 -3.60313832 2.72867115 -3.5625 1.0625 C-2.5625 0.0625 -2.5625 0.0625 0 0 Z " fill="#C595B9" transform="translate(34.5625,36.9375)"/>
<path d="M0 0 C0 3 0 3 -1 5 C-2.98 5 -4.96 5 -7 5 C-7 4.34 -7 3.68 -7 3 C-4.69 2.01 -2.38 1.02 0 0 Z " fill="#241813" transform="translate(75,23)"/>
<path d="M0 0 C0 0.33 0 0.66 0 1 C-4.1196377 2.29243536 -7.66831683 3.26252625 -12 3 C-7.8927971 -1.29389394 -5.8727074 -0.97878457 0 0 Z " fill="#513E3A" transform="translate(85,74)"/>
<path d="M0 0 C2 2 2 2 2.125 5.625 C2.08375 6.73875 2.0425 7.8525 2 9 C1.67 8.01 1.34 7.02 1 6 C0.01 6.33 -0.98 6.66 -2 7 C-2.33 5.68 -2.66 4.36 -3 3 C-2.01 3 -1.02 3 0 3 C0 2.01 0 1.02 0 0 Z " fill="#554E45" transform="translate(90,34)"/>
<path d="M0 0 C0.33 0.99 0.66 1.98 1 3 C1.66 3 2.32 3 3 3 C3.33 4.32 3.66 5.64 4 7 C1.69 6.67 -0.62 6.34 -3 6 C-1.125 1.125 -1.125 1.125 0 0 Z " fill="#756261" transform="translate(79,32)"/>
<path d="M0 0 C0.928125 0.20625 1.85625 0.4125 2.8125 0.625 C2.4825 1.285 2.1525 1.945 1.8125 2.625 C0.0625 3.1875 0.0625 3.1875 -2.1875 3.625 C-3.095 3.810625 -4.0025 3.99625 -4.9375 4.1875 C-5.68 4.331875 -6.4225 4.47625 -7.1875 4.625 C-5.78075725 0.40477175 -4.42930454 -0.52109465 0 0 Z " fill="#5E5C67" transform="translate(22.1875,32.375)"/>
<path d="M0 0 C0.66 0 1.32 0 2 0 C1.67 1.32 1.34 2.64 1 4 C1.66 4 2.32 4 3 4 C3 3.34 3 2.68 3 2 C4.32 2 5.64 2 7 2 C7 2.99 7 3.98 7 5 C4.69 5 2.38 5 0 5 C0 3.35 0 1.7 0 0 Z " fill="#D5B8D9" transform="translate(37,26)"/>
<path d="M0 0 C0.66 1.32 1.32 2.64 2 4 C-1.62326739 5.2077558 -2.64146369 4.54311128 -6 3 C-6 2.34 -6 1.68 -6 1 C-4.7934375 1.0309375 -4.7934375 1.0309375 -3.5625 1.0625 C-1.06645115 1.29633621 -1.06645115 1.29633621 0 0 Z " fill="#39383F" transform="translate(29,13)"/>
<path d="M0 0 C0.33 0 0.66 0 1 0 C1 2.97 1 5.94 1 9 C-0.65 8.67 -2.3 8.34 -4 8 C-3.67 7.01 -3.34 6.02 -3 5 C-2.34 5.33 -1.68 5.66 -1 6 C-0.67 4.02 -0.34 2.04 0 0 Z " fill="#54525C" transform="translate(24,58)"/>
<path d="M0 0 C0 0.99 0 1.98 0 3 C-0.639375 3.268125 -1.27875 3.53625 -1.9375 3.8125 C-4.33131686 4.88667752 -4.33131686 4.88667752 -5 8 C-5.66 8 -6.32 8 -7 8 C-6.875 5.6875 -6.875 5.6875 -6 3 C-2.9375 1.1875 -2.9375 1.1875 0 0 Z " fill="#A99AAF" transform="translate(69,20)"/>
<path d="M0 0 C2.31 0 4.62 0 7 0 C6.67 1.32 6.34 2.64 6 4 C5.01 4 4.02 4 3 4 C3 3.34 3 2.68 3 2 C2.01 1.67 1.02 1.34 0 1 C0 0.67 0 0.34 0 0 Z " fill="#6B6776" transform="translate(51,15)"/>
<path d="M0 0 C0.33 0.66 0.66 1.32 1 2 C2.98 1.34 4.96 0.68 7 0 C7 0.66 7 1.32 7 2 C4.09451118 4.04169485 2.59857954 5 -1 5 C-0.67 3.35 -0.34 1.7 0 0 Z " fill="#4D4C53" transform="translate(4,9)"/>
<path d="M0 0 C1.65 0 3.3 0 5 0 C5.1875 2.375 5.1875 2.375 5 5 C4.01 5.66 3.02 6.32 2 7 C2 5.02 2 3.04 2 1 C1.34 0.67 0.68 0.34 0 0 Z " fill="#212124" transform="translate(24,0)"/>
<path d="M0 0 C1.65 0.33 3.3 0.66 5 1 C0.25 5 0.25 5 -2 5 C-1.34 3.35 -0.68 1.7 0 0 Z " fill="#86697D" transform="translate(50,81)"/>
<path d="M0 0 C0.33 0.66 0.66 1.32 1 2 C-2.47325181 3.1577506 -5.36067448 3.06866652 -9 3 C-6.40821726 0.40821726 -3.54324677 -1.77162338 0 0 Z " fill="#83657A" transform="translate(66,79)"/>
<path d="M0 0 C0.99 0.33 1.98 0.66 3 1 C2.34 2.32 1.68 3.64 1 5 C-0.32 5 -1.64 5 -3 5 C-3 4.01 -3 3.02 -3 2 C-2.01 2 -1.02 2 0 2 C0 1.34 0 0.68 0 0 Z " fill="#71615B" transform="translate(78,55)"/>
<path d="M0 0 C4 2 4 2 4.875 3.9375 C5 6 5 6 3 9 C2.01 6.03 1.02 3.06 0 0 Z " fill="#444037" transform="translate(86,28)"/>
<path d="M0 0 C0.66 0.99 1.32 1.98 2 3 C1.01 3.33 0.02 3.66 -1 4 C-1 4.66 -1 5.32 -1 6 C-2.32 6.33 -3.64 6.66 -5 7 C-4.34 5.35 -3.68 3.7 -3 2 C-2.01 2 -1.02 2 0 2 C0 1.34 0 0.68 0 0 Z " fill="#484039" transform="translate(82,20)"/>
<path d="M0 0 C0.66 0 1.32 0 2 0 C2 0.66 2 1.32 2 2 C2.66 2 3.32 2 4 2 C4 2.66 4 3.32 4 4 C4.66 4 5.32 4 6 4 C6 4.66 6 5.32 6 6 C4.68 6.33 3.36 6.66 2 7 C1.34 4.69 0.68 2.38 0 0 Z " fill="#020206" transform="translate(7,13)"/>
<path d="M0 0 C0.99 0 1.98 0 3 0 C3.66 1.98 4.32 3.96 5 6 C3.68 5.67 2.36 5.34 1 5 C1 4.34 1 3.68 1 3 C0.34 2.67 -0.32 2.34 -1 2 C-0.67 1.34 -0.34 0.68 0 0 Z " fill="#1C1B21" transform="translate(16,8)"/>
<path d="M0 0 C0.66 0.33 1.32 0.66 2 1 C1.67 2.32 1.34 3.64 1 5 C-0.32 5 -1.64 5 -3 5 C-3 3.68 -3 2.36 -3 1 C-2.01 0.67 -1.02 0.34 0 0 Z " fill="#C392B5" transform="translate(44,43)"/>
<path d="M0 0 C-1.45255699 3.82946843 -3.42895561 5.12050295 -7 7 C-3.86206897 0 -3.86206897 0 0 0 Z " fill="#926F87" transform="translate(64,28)"/>
<path d="M0 0 C1.32 0 2.64 0 4 0 C3.67 0.99 3.34 1.98 3 3 C1.68 3 0.36 3 -1 3 C-1 3.66 -1 4.32 -1 5 C-1.66 5 -2.32 5 -3 5 C-1.125 1.125 -1.125 1.125 0 0 Z " fill="#E0DAEC" transform="translate(41,25)"/>
<path d="M0 0 C0.66 0.66 1.32 1.32 2 2 C1.625 5.625 1.625 5.625 1 9 C-1 6 -1 6 -0.625 3.8125 C-0.41875 3.214375 -0.2125 2.61625 0 2 C-0.66 1.67 -1.32 1.34 -2 1 C-1.34 0.67 -0.68 0.34 0 0 Z " fill="#44424B" transform="translate(18,21)"/>
<path d="M0 0 C1.65 0 3.3 0 5 0 C4.625 2.4375 4.625 2.4375 4 5 C3.01 5.495 3.01 5.495 2 6 C1.855625 5.38125 1.71125 4.7625 1.5625 4.125 C1.06847775 1.96741678 1.06847775 1.96741678 0 0 Z " fill="#7E6472" transform="translate(70,66)"/>
<path d="M0 0 C0 0.66 0 1.32 0 2 C-1.62626404 3.38232443 -3.2925002 4.71937515 -5 6 C-5.66 5.67 -6.32 5.34 -7 5 C-6.1875 3.0625 -6.1875 3.0625 -5 1 C-2 0 -2 0 0 0 Z " fill="#644354" transform="translate(62,65)"/>
<path d="M0 0 C1.485 0.99 1.485 0.99 3 2 C1.25 6.875 1.25 6.875 -1 8 C-0.67 5.36 -0.34 2.72 0 0 Z " fill="#2C1812" transform="translate(85,50)"/>
<path d="M0 0 C0.66 0.33 1.32 0.66 2 1 C0.515 4.465 0.515 4.465 -1 8 C-1.66 6.68 -2.32 5.36 -3 4 C-2.01 2.68 -1.02 1.36 0 0 Z " fill="#27262C" transform="translate(17,54)"/>
<path d="M0 0 C0 1.65 0 3.3 0 5 C-0.33 4.34 -0.66 3.68 -1 3 C-2.65 3.66 -4.3 4.32 -6 5 C-5.1875 3.0625 -5.1875 3.0625 -4 1 C-1 0 -1 0 0 0 Z " fill="#424247" transform="translate(13,32)"/>
<path d="M0 0 C0.33 0.66 0.66 1.32 1 2 C3.02463255 2.65213292 3.02463255 2.65213292 5 3 C5 3.66 5 4.32 5 5 C2.03 4.505 2.03 4.505 -1 4 C-0.67 2.68 -0.34 1.36 0 0 Z " fill="#1C1820" transform="translate(29,28)"/>
<path d="M0 0 C0.98120464 3.05263664 0.98120464 4.94736336 0 8 C-0.33 7.34 -0.66 6.68 -1 6 C-1.66 6 -2.32 6 -3 6 C-1.125 1.125 -1.125 1.125 0 0 Z " fill="#77526B" transform="translate(60,18)"/>
<path d="M0 0 C0.99 0 1.98 0 3 0 C3.33 1.65 3.66 3.3 4 5 C2.02 5.99 2.02 5.99 0 7 C0.185625 6.21625 0.37125 5.4325 0.5625 4.625 C1.25962266 2.02910225 1.25962266 2.02910225 0 0 Z " fill="#1C1B22" transform="translate(24,17)"/>
<path d="M0 0 C0.99 0 1.98 0 3 0 C2.34 1.65 1.68 3.3 1 5 C0.01 4.67 -0.98 4.34 -2 4 C-1.34 2.68 -0.68 1.36 0 0 Z " fill="#95949F" transform="translate(71,12)"/>
</svg>
